<mxfile host="drawio-plugin" modified="2024-01-12T14:11:53.397Z" agent="5.0 (Windows NT 6.2; Win64; x64) AppleWebKit/537.36 (KHTML, like Gecko) Chrome/104.0.5112.102 Safari/537.36" etag="iJ4lGGest1nLbumj94Yb" version="20.5.3" type="embed" pages="2"><diagram id="C5RBs43oDa-KdzZeNtuy" name="Dominios"><mxGraphModel dx="415" dy="1571" grid="1" gridSize="10" guides="1" tooltips="1" connect="1" arrows="1" fold="1" page="1" pageScale="1" pageWidth="827" pageHeight="1169" math="0" shadow="0"><root><mxCell id="WIyWlLk6GJQsqaUBKTNV-0"/><mxCell id="WIyWlLk6GJQsqaUBKTNV-1" parent="WIyWlLk6GJQsqaUBKTNV-0"/><mxCell id="wgyF0pq0-VDggAg1cZ6x-0" value="Propietario" style="swimlane;fontStyle=1;align=center;verticalAlign=top;childLayout=stackLayout;horizontal=1;startSize=26;horizontalStack=0;resizeParent=1;resizeParentMax=0;resizeLast=0;collapsible=1;marginBottom=0;whiteSpace=wrap;html=1;sketch=1;curveFitting=1;jiggle=2;fillColor=#0050ef;strokeColor=#001DBC;fillStyle=solid;fontColor=#ffffff;" parent="WIyWlLk6GJQsqaUBKTNV-1" vertex="1"><mxGeometry x="510" y="-270" width="160" height="268" as="geometry"/></mxCell><mxCell id="wgyF0pq0-VDggAg1cZ6x-1" value="- id: int" style="text;strokeColor=none;fillColor=none;align=left;verticalAlign=top;spacingLeft=4;spacingRight=4;overflow=hidden;rotatable=0;points=[[0,0.5],[1,0.5]];portConstraint=eastwest;whiteSpace=wrap;html=1;" parent="wgyF0pq0-VDggAg1cZ6x-0" vertex="1"><mxGeometry y="26" width="160" height="26" as="geometry"/></mxCell><mxCell id="wgyF0pq0-VDggAg1cZ6x-10" value="- nombre: String" style="text;strokeColor=none;fillColor=none;align=left;verticalAlign=top;spacingLeft=4;spacingRight=4;overflow=hidden;rotatable=0;points=[[0,0.5],[1,0.5]];portConstraint=eastwest;whiteSpace=wrap;html=1;" parent="wgyF0pq0-VDggAg1cZ6x-0" vertex="1"><mxGeometry y="52" width="160" height="26" as="geometry"/></mxCell><mxCell id="wgyF0pq0-VDggAg1cZ6x-9" value="- apellido: String" style="text;strokeColor=none;fillColor=none;align=left;verticalAlign=top;spacingLeft=4;spacingRight=4;overflow=hidden;rotatable=0;points=[[0,0.5],[1,0.5]];portConstraint=eastwest;whiteSpace=wrap;html=1;" parent="wgyF0pq0-VDggAg1cZ6x-0" vertex="1"><mxGeometry y="78" width="160" height="26" as="geometry"/></mxCell><mxCell id="wgyF0pq0-VDggAg1cZ6x-8" value="- descripcion: String&lt;br&gt;" style="text;strokeColor=none;fillColor=none;align=left;verticalAlign=top;spacingLeft=4;spacingRight=4;overflow=hidden;rotatable=0;points=[[0,0.5],[1,0.5]];portConstraint=eastwest;whiteSpace=wrap;html=1;" parent="wgyF0pq0-VDggAg1cZ6x-0" vertex="1"><mxGeometry y="104" width="160" height="26" as="geometry"/></mxCell><mxCell id="wgyF0pq0-VDggAg1cZ6x-7" value="- ubicacion: String&lt;br&gt;" style="text;strokeColor=none;fillColor=none;align=left;verticalAlign=top;spacingLeft=4;spacingRight=4;overflow=hidden;rotatable=0;points=[[0,0.5],[1,0.5]];portConstraint=eastwest;whiteSpace=wrap;html=1;" parent="wgyF0pq0-VDggAg1cZ6x-0" vertex="1"><mxGeometry y="130" width="160" height="26" as="geometry"/></mxCell><mxCell id="wgyF0pq0-VDggAg1cZ6x-6" value="- correo: String" style="text;strokeColor=none;fillColor=none;align=left;verticalAlign=top;spacingLeft=4;spacingRight=4;overflow=hidden;rotatable=0;points=[[0,0.5],[1,0.5]];portConstraint=eastwest;whiteSpace=wrap;html=1;" parent="wgyF0pq0-VDggAg1cZ6x-0" vertex="1"><mxGeometry y="156" width="160" height="26" as="geometry"/></mxCell><mxCell id="wgyF0pq0-VDggAg1cZ6x-5" value="- telefono: String" style="text;strokeColor=none;fillColor=none;align=left;verticalAlign=top;spacingLeft=4;spacingRight=4;overflow=hidden;rotatable=0;points=[[0,0.5],[1,0.5]];portConstraint=eastwest;whiteSpace=wrap;html=1;" parent="wgyF0pq0-VDggAg1cZ6x-0" vertex="1"><mxGeometry y="182" width="160" height="26" as="geometry"/></mxCell><mxCell id="gn2fqV4actJIJaJaXhQ8-0" value="- username: String" style="text;strokeColor=none;fillColor=none;align=left;verticalAlign=top;spacingLeft=4;spacingRight=4;overflow=hidden;rotatable=0;points=[[0,0.5],[1,0.5]];portConstraint=eastwest;whiteSpace=wrap;html=1;" parent="wgyF0pq0-VDggAg1cZ6x-0" vertex="1"><mxGeometry y="208" width="160" height="26" as="geometry"/></mxCell><mxCell id="gn2fqV4actJIJaJaXhQ8-1" value="- password: String" style="text;strokeColor=none;fillColor=none;align=left;verticalAlign=top;spacingLeft=4;spacingRight=4;overflow=hidden;rotatable=0;points=[[0,0.5],[1,0.5]];portConstraint=eastwest;whiteSpace=wrap;html=1;" parent="wgyF0pq0-VDggAg1cZ6x-0" vertex="1"><mxGeometry y="234" width="160" height="26" as="geometry"/></mxCell><mxCell id="wgyF0pq0-VDggAg1cZ6x-2" value="" style="line;strokeWidth=1;fillColor=none;align=left;verticalAlign=middle;spacingTop=-1;spacingLeft=3;spacingRight=3;rotatable=0;labelPosition=right;points=[];portConstraint=eastwest;strokeColor=inherit;" parent="wgyF0pq0-VDggAg1cZ6x-0" vertex="1"><mxGeometry y="260" width="160" height="8" as="geometry"/></mxCell><mxCell id="wgyF0pq0-VDggAg1cZ6x-11" value="&lt;b&gt;RedSocial&lt;/b&gt;" style="swimlane;fontStyle=0;childLayout=stackLayout;horizontal=1;startSize=26;fillColor=#0050ef;horizontalStack=0;resizeParent=1;resizeParentMax=0;resizeLast=0;collapsible=1;marginBottom=0;whiteSpace=wrap;html=1;strokeColor=#001DBC;sketch=1;curveFitting=1;jiggle=2;fillStyle=solid;fontColor=#ffffff;" parent="WIyWlLk6GJQsqaUBKTNV-1" vertex="1"><mxGeometry x="290" y="-200" width="140" height="156" as="geometry"/></mxCell><mxCell id="wgyF0pq0-VDggAg1cZ6x-12" value="- id: int" style="text;strokeColor=none;fillColor=none;align=left;verticalAlign=top;spacingLeft=4;spacingRight=4;overflow=hidden;rotatable=0;points=[[0,0.5],[1,0.5]];portConstraint=eastwest;whiteSpace=wrap;html=1;" parent="wgyF0pq0-VDggAg1cZ6x-11" vertex="1"><mxGeometry y="26" width="140" height="26" as="geometry"/></mxCell><mxCell id="wgyF0pq0-VDggAg1cZ6x-13" value="- nombre: String&lt;br&gt;" style="text;strokeColor=none;fillColor=none;align=left;verticalAlign=top;spacingLeft=4;spacingRight=4;overflow=hidden;rotatable=0;points=[[0,0.5],[1,0.5]];portConstraint=eastwest;whiteSpace=wrap;html=1;" parent="wgyF0pq0-VDggAg1cZ6x-11" vertex="1"><mxGeometry y="52" width="140" height="26" as="geometry"/></mxCell><mxCell id="wgyF0pq0-VDggAg1cZ6x-14" value="- enlace: String" style="text;strokeColor=none;fillColor=none;align=left;verticalAlign=top;spacingLeft=4;spacingRight=4;overflow=hidden;rotatable=0;points=[[0,0.5],[1,0.5]];portConstraint=eastwest;whiteSpace=wrap;html=1;" parent="wgyF0pq0-VDggAg1cZ6x-11" vertex="1"><mxGeometry y="78" width="140" height="26" as="geometry"/></mxCell><mxCell id="wgyF0pq0-VDggAg1cZ6x-15" value="- icono: String&lt;br&gt;" style="text;strokeColor=none;fillColor=none;align=left;verticalAlign=top;spacingLeft=4;spacingRight=4;overflow=hidden;rotatable=0;points=[[0,0.5],[1,0.5]];portConstraint=eastwest;whiteSpace=wrap;html=1;" parent="wgyF0pq0-VDggAg1cZ6x-11" vertex="1"><mxGeometry y="104" width="140" height="26" as="geometry"/></mxCell><mxCell id="wgyF0pq0-VDggAg1cZ6x-16" value="- propietarioId: String" style="text;strokeColor=none;fillColor=none;align=left;verticalAlign=top;spacingLeft=4;spacingRight=4;overflow=hidden;rotatable=0;points=[[0,0.5],[1,0.5]];portConstraint=eastwest;whiteSpace=wrap;html=1;" parent="wgyF0pq0-VDggAg1cZ6x-11" vertex="1"><mxGeometry y="130" width="140" height="26" as="geometry"/></mxCell><mxCell id="wgyF0pq0-VDggAg1cZ6x-17" value="&lt;b&gt;Servicio&lt;/b&gt;" style="swimlane;fontStyle=0;childLayout=stackLayout;horizontal=1;startSize=26;fillColor=#0050ef;horizontalStack=0;resizeParent=1;resizeParentMax=0;resizeLast=0;collapsible=1;marginBottom=0;whiteSpace=wrap;html=1;strokeColor=#001DBC;sketch=1;curveFitting=1;jiggle=2;fillStyle=solid;fontColor=#ffffff;" parent="WIyWlLk6GJQsqaUBKTNV-1" vertex="1"><mxGeometry x="80" y="30" width="140" height="156" as="geometry"/></mxCell><mxCell id="wgyF0pq0-VDggAg1cZ6x-18" value="- id: Long" style="text;strokeColor=none;fillColor=none;align=left;verticalAlign=top;spacingLeft=4;spacingRight=4;overflow=hidden;rotatable=0;points=[[0,0.5],[1,0.5]];portConstraint=eastwest;whiteSpace=wrap;html=1;" parent="wgyF0pq0-VDggAg1cZ6x-17" vertex="1"><mxGeometry y="26" width="140" height="26" as="geometry"/></mxCell><mxCell id="wgyF0pq0-VDggAg1cZ6x-21" value="- icono: String&lt;br&gt;" style="text;strokeColor=none;fillColor=none;align=left;verticalAlign=top;spacingLeft=4;spacingRight=4;overflow=hidden;rotatable=0;points=[[0,0.5],[1,0.5]];portConstraint=eastwest;whiteSpace=wrap;html=1;" parent="wgyF0pq0-VDggAg1cZ6x-17" vertex="1"><mxGeometry y="52" width="140" height="26" as="geometry"/></mxCell><mxCell id="wgyF0pq0-VDggAg1cZ6x-19" value="- titulo: String" style="text;strokeColor=none;fillColor=none;align=left;verticalAlign=top;spacingLeft=4;spacingRight=4;overflow=hidden;rotatable=0;points=[[0,0.5],[1,0.5]];portConstraint=eastwest;whiteSpace=wrap;html=1;" parent="wgyF0pq0-VDggAg1cZ6x-17" vertex="1"><mxGeometry y="78" width="140" height="26" as="geometry"/></mxCell><mxCell id="wgyF0pq0-VDggAg1cZ6x-20" value="- descripcion: String" style="text;strokeColor=none;fillColor=none;align=left;verticalAlign=top;spacingLeft=4;spacingRight=4;overflow=hidden;rotatable=0;points=[[0,0.5],[1,0.5]];portConstraint=eastwest;whiteSpace=wrap;html=1;" parent="wgyF0pq0-VDggAg1cZ6x-17" vertex="1"><mxGeometry y="104" width="140" height="26" as="geometry"/></mxCell><mxCell id="wgyF0pq0-VDggAg1cZ6x-22" value="- propietarioId: String" style="text;strokeColor=none;fillColor=none;align=left;verticalAlign=top;spacingLeft=4;spacingRight=4;overflow=hidden;rotatable=0;points=[[0,0.5],[1,0.5]];portConstraint=eastwest;whiteSpace=wrap;html=1;" parent="wgyF0pq0-VDggAg1cZ6x-17" vertex="1"><mxGeometry y="130" width="140" height="26" as="geometry"/></mxCell><mxCell id="wgyF0pq0-VDggAg1cZ6x-23" value="&lt;b&gt;Proyecto&lt;/b&gt;" style="swimlane;fontStyle=0;childLayout=stackLayout;horizontal=1;startSize=26;fillColor=#0050ef;horizontalStack=0;resizeParent=1;resizeParentMax=0;resizeLast=0;collapsible=1;marginBottom=0;whiteSpace=wrap;html=1;strokeColor=#001DBC;sketch=1;curveFitting=1;jiggle=2;fillStyle=solid;fontColor=#ffffff;" parent="WIyWlLk6GJQsqaUBKTNV-1" vertex="1"><mxGeometry x="320" y="30" width="140" height="208" as="geometry"/></mxCell><mxCell id="wgyF0pq0-VDggAg1cZ6x-24" value="- id: Long" style="text;strokeColor=none;fillColor=none;align=left;verticalAlign=top;spacingLeft=4;spacingRight=4;overflow=hidden;rotatable=0;points=[[0,0.5],[1,0.5]];portConstraint=eastwest;whiteSpace=wrap;html=1;" parent="wgyF0pq0-VDggAg1cZ6x-23" vertex="1"><mxGeometry y="26" width="140" height="26" as="geometry"/></mxCell><mxCell id="wgyF0pq0-VDggAg1cZ6x-26" value="- titulo: String" style="text;strokeColor=none;fillColor=none;align=left;verticalAlign=top;spacingLeft=4;spacingRight=4;overflow=hidden;rotatable=0;points=[[0,0.5],[1,0.5]];portConstraint=eastwest;whiteSpace=wrap;html=1;" parent="wgyF0pq0-VDggAg1cZ6x-23" vertex="1"><mxGeometry y="52" width="140" height="26" as="geometry"/></mxCell><mxCell id="wgyF0pq0-VDggAg1cZ6x-25" value="- resumen: String" style="text;strokeColor=none;fillColor=none;align=left;verticalAlign=top;spacingLeft=4;spacingRight=4;overflow=hidden;rotatable=0;points=[[0,0.5],[1,0.5]];portConstraint=eastwest;whiteSpace=wrap;html=1;" parent="wgyF0pq0-VDggAg1cZ6x-23" vertex="1"><mxGeometry y="78" width="140" height="26" as="geometry"/></mxCell><mxCell id="wgyF0pq0-VDggAg1cZ6x-27" value="- descripcion: String" style="text;strokeColor=none;fillColor=none;align=left;verticalAlign=top;spacingLeft=4;spacingRight=4;overflow=hidden;rotatable=0;points=[[0,0.5],[1,0.5]];portConstraint=eastwest;whiteSpace=wrap;html=1;" parent="wgyF0pq0-VDggAg1cZ6x-23" vertex="1"><mxGeometry y="104" width="140" height="26" as="geometry"/></mxCell><mxCell id="wgyF0pq0-VDggAg1cZ6x-29" value="- imagen: String" style="text;strokeColor=none;fillColor=none;align=left;verticalAlign=top;spacingLeft=4;spacingRight=4;overflow=hidden;rotatable=0;points=[[0,0.5],[1,0.5]];portConstraint=eastwest;whiteSpace=wrap;html=1;" parent="wgyF0pq0-VDggAg1cZ6x-23" vertex="1"><mxGeometry y="130" width="140" height="26" as="geometry"/></mxCell><mxCell id="wgyF0pq0-VDggAg1cZ6x-30" value="- enlace: String" style="text;strokeColor=none;fillColor=none;align=left;verticalAlign=top;spacingLeft=4;spacingRight=4;overflow=hidden;rotatable=0;points=[[0,0.5],[1,0.5]];portConstraint=eastwest;whiteSpace=wrap;html=1;" parent="wgyF0pq0-VDggAg1cZ6x-23" vertex="1"><mxGeometry y="156" width="140" height="26" as="geometry"/></mxCell><mxCell id="wgyF0pq0-VDggAg1cZ6x-28" value="- propietarioId: String" style="text;strokeColor=none;fillColor=none;align=left;verticalAlign=top;spacingLeft=4;spacingRight=4;overflow=hidden;rotatable=0;points=[[0,0.5],[1,0.5]];portConstraint=eastwest;whiteSpace=wrap;html=1;" parent="wgyF0pq0-VDggAg1cZ6x-23" vertex="1"><mxGeometry y="182" width="140" height="26" as="geometry"/></mxCell><mxCell id="wgyF0pq0-VDggAg1cZ6x-39" value="&lt;b&gt;Habilidad&lt;/b&gt;" style="swimlane;fontStyle=0;childLayout=stackLayout;horizontal=1;startSize=26;fillColor=#0050ef;horizontalStack=0;resizeParent=1;resizeParentMax=0;resizeLast=0;collapsible=1;marginBottom=0;whiteSpace=wrap;html=1;strokeColor=#001DBC;sketch=1;curveFitting=1;jiggle=2;fillStyle=solid;fontColor=#ffffff;" parent="WIyWlLk6GJQsqaUBKTNV-1" vertex="1"><mxGeometry x="520" y="30" width="140" height="156" as="geometry"/></mxCell><mxCell id="wgyF0pq0-VDggAg1cZ6x-40" value="- id: Long" style="text;strokeColor=none;fillColor=none;align=left;verticalAlign=top;spacingLeft=4;spacingRight=4;overflow=hidden;rotatable=0;points=[[0,0.5],[1,0.5]];portConstraint=eastwest;whiteSpace=wrap;html=1;" parent="wgyF0pq0-VDggAg1cZ6x-39" vertex="1"><mxGeometry y="26" width="140" height="26" as="geometry"/></mxCell><mxCell id="wgyF0pq0-VDggAg1cZ6x-41" value="- nombre: String" style="text;strokeColor=none;fillColor=none;align=left;verticalAlign=top;spacingLeft=4;spacingRight=4;overflow=hidden;rotatable=0;points=[[0,0.5],[1,0.5]];portConstraint=eastwest;whiteSpace=wrap;html=1;" parent="wgyF0pq0-VDggAg1cZ6x-39" vertex="1"><mxGeometry y="52" width="140" height="26" as="geometry"/></mxCell><mxCell id="wgyF0pq0-VDggAg1cZ6x-42" value="- porcentaje: int" style="text;strokeColor=none;fillColor=none;align=left;verticalAlign=top;spacingLeft=4;spacingRight=4;overflow=hidden;rotatable=0;points=[[0,0.5],[1,0.5]];portConstraint=eastwest;whiteSpace=wrap;html=1;" parent="wgyF0pq0-VDggAg1cZ6x-39" vertex="1"><mxGeometry y="78" width="140" height="26" as="geometry"/></mxCell><mxCell id="wgyF0pq0-VDggAg1cZ6x-44" value="- imagen: String" style="text;strokeColor=none;fillColor=none;align=left;verticalAlign=top;spacingLeft=4;spacingRight=4;overflow=hidden;rotatable=0;points=[[0,0.5],[1,0.5]];portConstraint=eastwest;whiteSpace=wrap;html=1;" parent="wgyF0pq0-VDggAg1cZ6x-39" vertex="1"><mxGeometry y="104" width="140" height="26" as="geometry"/></mxCell><mxCell id="wgyF0pq0-VDggAg1cZ6x-46" value="- propietarioId: String" style="text;strokeColor=none;fillColor=none;align=left;verticalAlign=top;spacingLeft=4;spacingRight=4;overflow=hidden;rotatable=0;points=[[0,0.5],[1,0.5]];portConstraint=eastwest;whiteSpace=wrap;html=1;" parent="wgyF0pq0-VDggAg1cZ6x-39" vertex="1"><mxGeometry y="130" width="140" height="26" as="geometry"/></mxCell><mxCell id="wgyF0pq0-VDggAg1cZ6x-47" value="&lt;b&gt;ExperienciaLaboral&lt;/b&gt;" style="swimlane;fontStyle=0;childLayout=stackLayout;horizontal=1;startSize=26;fillColor=#0050ef;horizontalStack=0;resizeParent=1;resizeParentMax=0;resizeLast=0;collapsible=1;marginBottom=0;whiteSpace=wrap;html=1;strokeColor=#001DBC;sketch=1;curveFitting=1;jiggle=2;fillStyle=solid;fontColor=#ffffff;" parent="WIyWlLk6GJQsqaUBKTNV-1" vertex="1"><mxGeometry x="710" y="30" width="140" height="234" as="geometry"/></mxCell><mxCell id="wgyF0pq0-VDggAg1cZ6x-48" value="- id: Long" style="text;strokeColor=none;fillColor=none;align=left;verticalAlign=top;spacingLeft=4;spacingRight=4;overflow=hidden;rotatable=0;points=[[0,0.5],[1,0.5]];portConstraint=eastwest;whiteSpace=wrap;html=1;" parent="wgyF0pq0-VDggAg1cZ6x-47" vertex="1"><mxGeometry y="26" width="140" height="26" as="geometry"/></mxCell><mxCell id="wgyF0pq0-VDggAg1cZ6x-49" value="- puesto: String" style="text;strokeColor=none;fillColor=none;align=left;verticalAlign=top;spacingLeft=4;spacingRight=4;overflow=hidden;rotatable=0;points=[[0,0.5],[1,0.5]];portConstraint=eastwest;whiteSpace=wrap;html=1;" parent="wgyF0pq0-VDggAg1cZ6x-47" vertex="1"><mxGeometry y="52" width="140" height="26" as="geometry"/></mxCell><mxCell id="wgyF0pq0-VDggAg1cZ6x-50" value="- empresa: String" style="text;strokeColor=none;fillColor=none;align=left;verticalAlign=top;spacingLeft=4;spacingRight=4;overflow=hidden;rotatable=0;points=[[0,0.5],[1,0.5]];portConstraint=eastwest;whiteSpace=wrap;html=1;" parent="wgyF0pq0-VDggAg1cZ6x-47" vertex="1"><mxGeometry y="78" width="140" height="26" as="geometry"/></mxCell><mxCell id="wgyF0pq0-VDggAg1cZ6x-51" value="- descripcion: String" style="text;strokeColor=none;fillColor=none;align=left;verticalAlign=top;spacingLeft=4;spacingRight=4;overflow=hidden;rotatable=0;points=[[0,0.5],[1,0.5]];portConstraint=eastwest;whiteSpace=wrap;html=1;" parent="wgyF0pq0-VDggAg1cZ6x-47" vertex="1"><mxGeometry y="104" width="140" height="26" as="geometry"/></mxCell><mxCell id="wgyF0pq0-VDggAg1cZ6x-52" value="- fechaInicio: LocalDate" style="text;strokeColor=none;fillColor=none;align=left;verticalAlign=top;spacingLeft=4;spacingRight=4;overflow=hidden;rotatable=0;points=[[0,0.5],[1,0.5]];portConstraint=eastwest;whiteSpace=wrap;html=1;" parent="wgyF0pq0-VDggAg1cZ6x-47" vertex="1"><mxGeometry y="130" width="140" height="26" as="geometry"/></mxCell><mxCell id="wgyF0pq0-VDggAg1cZ6x-53" value="- fechaFin: LocalDate" style="text;strokeColor=none;fillColor=none;align=left;verticalAlign=top;spacingLeft=4;spacingRight=4;overflow=hidden;rotatable=0;points=[[0,0.5],[1,0.5]];portConstraint=eastwest;whiteSpace=wrap;html=1;" parent="wgyF0pq0-VDggAg1cZ6x-47" vertex="1"><mxGeometry y="156" width="140" height="26" as="geometry"/></mxCell><mxCell id="wgyF0pq0-VDggAg1cZ6x-54" value="- icono: String" style="text;strokeColor=none;fillColor=none;align=left;verticalAlign=top;spacingLeft=4;spacingRight=4;overflow=hidden;rotatable=0;points=[[0,0.5],[1,0.5]];portConstraint=eastwest;whiteSpace=wrap;html=1;" parent="wgyF0pq0-VDggAg1cZ6x-47" vertex="1"><mxGeometry y="182" width="140" height="26" as="geometry"/></mxCell><mxCell id="wgyF0pq0-VDggAg1cZ6x-55" value="- propietarioId: String" style="text;strokeColor=none;fillColor=none;align=left;verticalAlign=top;spacingLeft=4;spacingRight=4;overflow=hidden;rotatable=0;points=[[0,0.5],[1,0.5]];portConstraint=eastwest;whiteSpace=wrap;html=1;" parent="wgyF0pq0-VDggAg1cZ6x-47" vertex="1"><mxGeometry y="208" width="140" height="26" as="geometry"/></mxCell><mxCell id="wgyF0pq0-VDggAg1cZ6x-56" value="&lt;b&gt;Educacion&lt;/b&gt;" style="swimlane;fontStyle=0;childLayout=stackLayout;horizontal=1;startSize=26;fillColor=#0050ef;horizontalStack=0;resizeParent=1;resizeParentMax=0;resizeLast=0;collapsible=1;marginBottom=0;whiteSpace=wrap;html=1;strokeColor=#001DBC;sketch=1;curveFitting=1;jiggle=2;fillStyle=solid;fontColor=#ffffff;" parent="WIyWlLk6GJQsqaUBKTNV-1" vertex="1"><mxGeometry x="900" y="30" width="140" height="234" as="geometry"/></mxCell><mxCell id="wgyF0pq0-VDggAg1cZ6x-57" value="- id: Long" style="text;strokeColor=none;fillColor=none;align=left;verticalAlign=top;spacingLeft=4;spacingRight=4;overflow=hidden;rotatable=0;points=[[0,0.5],[1,0.5]];portConstraint=eastwest;whiteSpace=wrap;html=1;" parent="wgyF0pq0-VDggAg1cZ6x-56" vertex="1"><mxGeometry y="26" width="140" height="26" as="geometry"/></mxCell><mxCell id="wgyF0pq0-VDggAg1cZ6x-58" value="- titulo: String" style="text;strokeColor=none;fillColor=none;align=left;verticalAlign=top;spacingLeft=4;spacingRight=4;overflow=hidden;rotatable=0;points=[[0,0.5],[1,0.5]];portConstraint=eastwest;whiteSpace=wrap;html=1;" parent="wgyF0pq0-VDggAg1cZ6x-56" vertex="1"><mxGeometry y="52" width="140" height="26" as="geometry"/></mxCell><mxCell id="wgyF0pq0-VDggAg1cZ6x-59" value="- lugar: String" style="text;strokeColor=none;fillColor=none;align=left;verticalAlign=top;spacingLeft=4;spacingRight=4;overflow=hidden;rotatable=0;points=[[0,0.5],[1,0.5]];portConstraint=eastwest;whiteSpace=wrap;html=1;" parent="wgyF0pq0-VDggAg1cZ6x-56" vertex="1"><mxGeometry y="78" width="140" height="26" as="geometry"/></mxCell><mxCell id="wgyF0pq0-VDggAg1cZ6x-60" value="- descripcion: String" style="text;strokeColor=none;fillColor=none;align=left;verticalAlign=top;spacingLeft=4;spacingRight=4;overflow=hidden;rotatable=0;points=[[0,0.5],[1,0.5]];portConstraint=eastwest;whiteSpace=wrap;html=1;" parent="wgyF0pq0-VDggAg1cZ6x-56" vertex="1"><mxGeometry y="104" width="140" height="26" as="geometry"/></mxCell><mxCell id="wgyF0pq0-VDggAg1cZ6x-61" value="- fechaInicio: LocalDate" style="text;strokeColor=none;fillColor=none;align=left;verticalAlign=top;spacingLeft=4;spacingRight=4;overflow=hidden;rotatable=0;points=[[0,0.5],[1,0.5]];portConstraint=eastwest;whiteSpace=wrap;html=1;" parent="wgyF0pq0-VDggAg1cZ6x-56" vertex="1"><mxGeometry y="130" width="140" height="26" as="geometry"/></mxCell><mxCell id="wgyF0pq0-VDggAg1cZ6x-62" value="- fechaFin: LocalDate" style="text;strokeColor=none;fillColor=none;align=left;verticalAlign=top;spacingLeft=4;spacingRight=4;overflow=hidden;rotatable=0;points=[[0,0.5],[1,0.5]];portConstraint=eastwest;whiteSpace=wrap;html=1;" parent="wgyF0pq0-VDggAg1cZ6x-56" vertex="1"><mxGeometry y="156" width="140" height="26" as="geometry"/></mxCell><mxCell id="wgyF0pq0-VDggAg1cZ6x-63" value="- icono: String" style="text;strokeColor=none;fillColor=none;align=left;verticalAlign=top;spacingLeft=4;spacingRight=4;overflow=hidden;rotatable=0;points=[[0,0.5],[1,0.5]];portConstraint=eastwest;whiteSpace=wrap;html=1;" parent="wgyF0pq0-VDggAg1cZ6x-56" vertex="1"><mxGeometry y="182" width="140" height="26" as="geometry"/></mxCell><mxCell id="wgyF0pq0-VDggAg1cZ6x-64" value="- propietarioId: String" style="text;strokeColor=none;fillColor=none;align=left;verticalAlign=top;spacingLeft=4;spacingRight=4;overflow=hidden;rotatable=0;points=[[0,0.5],[1,0.5]];portConstraint=eastwest;whiteSpace=wrap;html=1;" parent="wgyF0pq0-VDggAg1cZ6x-56" vertex="1"><mxGeometry y="208" width="140" height="26" as="geometry"/></mxCell></root></mxGraphModel></diagram><diagram id="qVeSQwBBOEhynTaPw4Xg" name="Diagrama"><mxGraphModel dx="15" dy="-398" grid="0" gridSize="10" guides="1" tooltips="1" connect="1" arrows="1" fold="1" page="0" pageScale="1" pageWidth="827" pageHeight="1169" math="0" shadow="0"><root><mxCell id="0"/><mxCell id="1" parent="0"/><mxCell id="QjAMohEcvN3F0gAfyXF0-1" value="PropietarioRestController" style="swimlane;fontStyle=1;align=center;verticalAlign=top;childLayout=stackLayout;horizontal=1;startSize=26;horizontalStack=0;resizeParent=1;resizeParentMax=0;resizeLast=0;collapsible=1;marginBottom=0;whiteSpace=wrap;html=1;fillColor=#fa6800;strokeColor=#C73500;fillStyle=solid;sketch=1;curveFitting=1;jiggle=2;fontColor=#000000;" parent="1" vertex="1"><mxGeometry x="1170" y="1325" width="290" height="86" as="geometry"/></mxCell><mxCell id="QjAMohEcvN3F0gAfyXF0-2" value="- PropietarioService: propietarioService" style="text;strokeColor=none;fillColor=none;align=left;verticalAlign=top;spacingLeft=4;spacingRight=4;overflow=hidden;rotatable=0;points=[[0,0.5],[1,0.5]];portConstraint=eastwest;whiteSpace=wrap;html=1;" parent="QjAMohEcvN3F0gAfyXF0-1" vertex="1"><mxGeometry y="26" width="290" height="26" as="geometry"/></mxCell><mxCell id="QjAMohEcvN3F0gAfyXF0-3" value="" style="line;strokeWidth=1;fillColor=none;align=left;verticalAlign=middle;spacingTop=-1;spacingLeft=3;spacingRight=3;rotatable=0;labelPosition=right;points=[];portConstraint=eastwest;strokeColor=inherit;" parent="QjAMohEcvN3F0gAfyXF0-1" vertex="1"><mxGeometry y="52" width="290" height="8" as="geometry"/></mxCell><mxCell id="K4xMcO6IJz8VH5AZFiYE-13" value="+ actualizar(Propietario propietario): void" style="text;strokeColor=none;fillColor=none;align=left;verticalAlign=top;spacingLeft=4;spacingRight=4;overflow=hidden;rotatable=0;points=[[0,0.5],[1,0.5]];portConstraint=eastwest;whiteSpace=wrap;html=1;" parent="QjAMohEcvN3F0gAfyXF0-1" vertex="1"><mxGeometry y="60" width="290" height="26" as="geometry"/></mxCell><mxCell id="p0kd9rkzA9ihmDL9bvHe-2" style="edgeStyle=orthogonalEdgeStyle;rounded=0;orthogonalLoop=1;jettySize=auto;html=1;endArrow=block;endFill=0;endSize=16;dashed=1;" parent="1" source="K4xMcO6IJz8VH5AZFiYE-1" target="K4xMcO6IJz8VH5AZFiYE-7" edge="1"><mxGeometry relative="1" as="geometry"/></mxCell><mxCell id="K4xMcO6IJz8VH5AZFiYE-1" value="PropietarioServiceImpl" style="swimlane;fontStyle=1;align=center;verticalAlign=top;childLayout=stackLayout;horizontal=1;startSize=26;horizontalStack=0;resizeParent=1;resizeParentMax=0;resizeLast=0;collapsible=1;marginBottom=0;whiteSpace=wrap;html=1;fillColor=#008a00;strokeColor=#005700;fillStyle=solid;sketch=1;curveFitting=1;jiggle=2;fontColor=#ffffff;" parent="1" vertex="1"><mxGeometry x="1150" y="1656" width="360" height="112" as="geometry"/></mxCell><mxCell id="K4xMcO6IJz8VH5AZFiYE-3" value="" style="line;strokeWidth=1;fillColor=none;align=left;verticalAlign=middle;spacingTop=-1;spacingLeft=3;spacingRight=3;rotatable=0;labelPosition=right;points=[];portConstraint=eastwest;strokeColor=inherit;" parent="K4xMcO6IJz8VH5AZFiYE-1" vertex="1"><mxGeometry y="26" width="360" height="8" as="geometry"/></mxCell><mxCell id="K4xMcO6IJz8VH5AZFiYE-6" value="+ ver(): Propietario" style="text;strokeColor=none;fillColor=none;align=left;verticalAlign=top;spacingLeft=4;spacingRight=4;overflow=hidden;rotatable=0;points=[[0,0.5],[1,0.5]];portConstraint=eastwest;whiteSpace=wrap;html=1;" parent="K4xMcO6IJz8VH5AZFiYE-1" vertex="1"><mxGeometry y="34" width="360" height="26" as="geometry"/></mxCell><mxCell id="K4xMcO6IJz8VH5AZFiYE-4" value="+ actualizar(Propietario propietario): Propietario" style="text;strokeColor=none;fillColor=none;align=left;verticalAlign=top;spacingLeft=4;spacingRight=4;overflow=hidden;rotatable=0;points=[[0,0.5],[1,0.5]];portConstraint=eastwest;whiteSpace=wrap;html=1;" parent="K4xMcO6IJz8VH5AZFiYE-1" vertex="1"><mxGeometry y="60" width="360" height="26" as="geometry"/></mxCell><mxCell id="qYCgzGqIkDIQDAabB-oh-8" value="+ esUsuarioValido(String username, String password): boolean" style="text;strokeColor=none;fillColor=none;align=left;verticalAlign=top;spacingLeft=4;spacingRight=4;overflow=hidden;rotatable=0;points=[[0,0.5],[1,0.5]];portConstraint=eastwest;whiteSpace=wrap;html=1;" parent="K4xMcO6IJz8VH5AZFiYE-1" vertex="1"><mxGeometry y="86" width="360" height="26" as="geometry"/></mxCell><mxCell id="fhrFDsGuwFO-u_vkNsX--13" style="edgeStyle=orthogonalEdgeStyle;rounded=0;orthogonalLoop=1;jettySize=auto;html=1;endArrow=diamondThin;endFill=0;endSize=16;" parent="1" source="K4xMcO6IJz8VH5AZFiYE-7" target="K4xMcO6IJz8VH5AZFiYE-14" edge="1"><mxGeometry relative="1" as="geometry"><Array as="points"><mxPoint x="1385" y="1531"/><mxPoint x="1510" y="1531"/></Array></mxGeometry></mxCell><mxCell id="p0kd9rkzA9ihmDL9bvHe-1" style="edgeStyle=orthogonalEdgeStyle;rounded=0;orthogonalLoop=1;jettySize=auto;html=1;endArrow=diamondThin;endFill=0;endSize=16;" parent="1" source="K4xMcO6IJz8VH5AZFiYE-7" target="QjAMohEcvN3F0gAfyXF0-1" edge="1"><mxGeometry relative="1" as="geometry"/></mxCell><mxCell id="K4xMcO6IJz8VH5AZFiYE-7" value="&lt;i style=&quot;font-weight: normal;&quot;&gt;&amp;lt;&amp;lt;Interface&amp;gt;&amp;gt;&lt;/i&gt;&lt;br&gt;PropietarioService" style="swimlane;fontStyle=1;align=center;verticalAlign=top;childLayout=stackLayout;horizontal=1;startSize=40;horizontalStack=0;resizeParent=1;resizeParentMax=0;resizeLast=0;collapsible=1;marginBottom=0;whiteSpace=wrap;html=1;fillColor=#1ba1e2;strokeColor=#006EAF;sketch=1;curveFitting=1;jiggle=2;fillStyle=solid;fontColor=#ffffff;" parent="1" vertex="1"><mxGeometry x="1150" y="1486" width="360" height="126" as="geometry"/></mxCell><mxCell id="K4xMcO6IJz8VH5AZFiYE-8" value="" style="line;strokeWidth=1;fillColor=none;align=left;verticalAlign=middle;spacingTop=-1;spacingLeft=3;spacingRight=3;rotatable=0;labelPosition=right;points=[];portConstraint=eastwest;strokeColor=inherit;" parent="K4xMcO6IJz8VH5AZFiYE-7" vertex="1"><mxGeometry y="40" width="360" height="8" as="geometry"/></mxCell><mxCell id="K4xMcO6IJz8VH5AZFiYE-9" value="ver(): Propietario" style="text;strokeColor=none;fillColor=none;align=left;verticalAlign=top;spacingLeft=4;spacingRight=4;overflow=hidden;rotatable=0;points=[[0,0.5],[1,0.5]];portConstraint=eastwest;whiteSpace=wrap;html=1;" parent="K4xMcO6IJz8VH5AZFiYE-7" vertex="1"><mxGeometry y="48" width="360" height="26" as="geometry"/></mxCell><mxCell id="K4xMcO6IJz8VH5AZFiYE-10" value="actualizar(Propietario propietario): Propietario" style="text;strokeColor=none;fillColor=none;align=left;verticalAlign=top;spacingLeft=4;spacingRight=4;overflow=hidden;rotatable=0;points=[[0,0.5],[1,0.5]];portConstraint=eastwest;whiteSpace=wrap;html=1;" parent="K4xMcO6IJz8VH5AZFiYE-7" vertex="1"><mxGeometry y="74" width="360" height="26" as="geometry"/></mxCell><mxCell id="qYCgzGqIkDIQDAabB-oh-7" value="esUsuarioValido(String username, String password): boolean" style="text;strokeColor=none;fillColor=none;align=left;verticalAlign=top;spacingLeft=4;spacingRight=4;overflow=hidden;rotatable=0;points=[[0,0.5],[1,0.5]];portConstraint=eastwest;whiteSpace=wrap;html=1;" parent="K4xMcO6IJz8VH5AZFiYE-7" vertex="1"><mxGeometry y="100" width="360" height="26" as="geometry"/></mxCell><mxCell id="K4xMcO6IJz8VH5AZFiYE-14" value="VistasUsuarioController" style="swimlane;fontStyle=1;align=center;verticalAlign=top;childLayout=stackLayout;horizontal=1;startSize=26;horizontalStack=0;resizeParent=1;resizeParentMax=0;resizeLast=0;collapsible=1;marginBottom=0;whiteSpace=wrap;html=1;fillColor=#fa6800;strokeColor=#C73500;sketch=1;curveFitting=1;jiggle=2;fillStyle=solid;fontColor=#000000;" parent="1" vertex="1"><mxGeometry x="1520" y="1114" width="230" height="372" as="geometry"/></mxCell><mxCell id="K4xMcO6IJz8VH5AZFiYE-15" value="- PropietarioService: propietarioService" style="text;strokeColor=none;fillColor=none;align=left;verticalAlign=top;spacingLeft=4;spacingRight=4;overflow=hidden;rotatable=0;points=[[0,0.5],[1,0.5]];portConstraint=eastwest;whiteSpace=wrap;html=1;" parent="K4xMcO6IJz8VH5AZFiYE-14" vertex="1"><mxGeometry y="26" width="230" height="26" as="geometry"/></mxCell><mxCell id="fhrFDsGuwFO-u_vkNsX--23" value="- RedSocialService: redSocialService" style="text;strokeColor=none;fillColor=none;align=left;verticalAlign=top;spacingLeft=4;spacingRight=4;overflow=hidden;rotatable=0;points=[[0,0.5],[1,0.5]];portConstraint=eastwest;whiteSpace=wrap;html=1;" parent="K4xMcO6IJz8VH5AZFiYE-14" vertex="1"><mxGeometry y="52" width="230" height="26" as="geometry"/></mxCell><mxCell id="h4Y01j1B2Agyef4tRmp--19" value="- ServicioService: servicioService" style="text;strokeColor=none;fillColor=none;align=left;verticalAlign=top;spacingLeft=4;spacingRight=4;overflow=hidden;rotatable=0;points=[[0,0.5],[1,0.5]];portConstraint=eastwest;whiteSpace=wrap;html=1;" parent="K4xMcO6IJz8VH5AZFiYE-14" vertex="1"><mxGeometry y="78" width="230" height="26" as="geometry"/></mxCell><mxCell id="mUldyUEQ6y1SAiIX7GOT-3" value="- HabilidadService: habilidadService" style="text;strokeColor=none;fillColor=none;align=left;verticalAlign=top;spacingLeft=4;spacingRight=4;overflow=hidden;rotatable=0;points=[[0,0.5],[1,0.5]];portConstraint=eastwest;whiteSpace=wrap;html=1;" parent="K4xMcO6IJz8VH5AZFiYE-14" vertex="1"><mxGeometry y="104" width="230" height="26" as="geometry"/></mxCell><mxCell id="GJZl_H41ChBDgXwOMqB0-24" value="- ProyectoService: proyectoService" style="text;strokeColor=none;fillColor=none;align=left;verticalAlign=top;spacingLeft=4;spacingRight=4;overflow=hidden;rotatable=0;points=[[0,0.5],[1,0.5]];portConstraint=eastwest;whiteSpace=wrap;html=1;" parent="K4xMcO6IJz8VH5AZFiYE-14" vertex="1"><mxGeometry y="130" width="230" height="26" as="geometry"/></mxCell><mxCell id="_aZRVZ8RXkz7k147GbF6-1" value="- ExpLaboralService: expLaboralService" style="text;strokeColor=none;fillColor=none;align=left;verticalAlign=top;spacingLeft=4;spacingRight=4;overflow=hidden;rotatable=0;points=[[0,0.5],[1,0.5]];portConstraint=eastwest;whiteSpace=wrap;html=1;" parent="K4xMcO6IJz8VH5AZFiYE-14" vertex="1"><mxGeometry y="156" width="230" height="26" as="geometry"/></mxCell><mxCell id="_aZRVZ8RXkz7k147GbF6-2" value="- EducacionService: educacionService" style="text;strokeColor=none;fillColor=none;align=left;verticalAlign=top;spacingLeft=4;spacingRight=4;overflow=hidden;rotatable=0;points=[[0,0.5],[1,0.5]];portConstraint=eastwest;whiteSpace=wrap;html=1;" parent="K4xMcO6IJz8VH5AZFiYE-14" vertex="1"><mxGeometry y="182" width="230" height="26" as="geometry"/></mxCell><mxCell id="K4xMcO6IJz8VH5AZFiYE-16" value="" style="line;strokeWidth=1;fillColor=none;align=left;verticalAlign=middle;spacingTop=-1;spacingLeft=3;spacingRight=3;rotatable=0;labelPosition=right;points=[];portConstraint=eastwest;strokeColor=inherit;" parent="K4xMcO6IJz8VH5AZFiYE-14" vertex="1"><mxGeometry y="208" width="230" height="8" as="geometry"/></mxCell><mxCell id="K4xMcO6IJz8VH5AZFiYE-18" value="+ home(Model model): String" style="text;strokeColor=none;fillColor=none;align=left;verticalAlign=top;spacingLeft=4;spacingRight=4;overflow=hidden;rotatable=0;points=[[0,0.5],[1,0.5]];portConstraint=eastwest;whiteSpace=wrap;html=1;" parent="K4xMcO6IJz8VH5AZFiYE-14" vertex="1"><mxGeometry y="216" width="230" height="26" as="geometry"/></mxCell><mxCell id="fhrFDsGuwFO-u_vkNsX--26" value="+ verSobreMi(Model model): String" style="text;strokeColor=none;fillColor=none;align=left;verticalAlign=top;spacingLeft=4;spacingRight=4;overflow=hidden;rotatable=0;points=[[0,0.5],[1,0.5]];portConstraint=eastwest;whiteSpace=wrap;html=1;" parent="K4xMcO6IJz8VH5AZFiYE-14" vertex="1"><mxGeometry y="242" width="230" height="26" as="geometry"/></mxCell><mxCell id="mUldyUEQ6y1SAiIX7GOT-2" value="+ verHabilidades(Model model): String" style="text;strokeColor=none;fillColor=none;align=left;verticalAlign=top;spacingLeft=4;spacingRight=4;overflow=hidden;rotatable=0;points=[[0,0.5],[1,0.5]];portConstraint=eastwest;whiteSpace=wrap;html=1;" parent="K4xMcO6IJz8VH5AZFiYE-14" vertex="1"><mxGeometry y="268" width="230" height="26" as="geometry"/></mxCell><mxCell id="GJZl_H41ChBDgXwOMqB0-25" value="+ verProyectos(Model model): String" style="text;strokeColor=none;fillColor=none;align=left;verticalAlign=top;spacingLeft=4;spacingRight=4;overflow=hidden;rotatable=0;points=[[0,0.5],[1,0.5]];portConstraint=eastwest;whiteSpace=wrap;html=1;" parent="K4xMcO6IJz8VH5AZFiYE-14" vertex="1"><mxGeometry y="294" width="230" height="26" as="geometry"/></mxCell><mxCell id="_aZRVZ8RXkz7k147GbF6-3" value="+ verExpLaborales(Model model): String" style="text;strokeColor=none;fillColor=none;align=left;verticalAlign=top;spacingLeft=4;spacingRight=4;overflow=hidden;rotatable=0;points=[[0,0.5],[1,0.5]];portConstraint=eastwest;whiteSpace=wrap;html=1;" parent="K4xMcO6IJz8VH5AZFiYE-14" vertex="1"><mxGeometry y="320" width="230" height="26" as="geometry"/></mxCell><mxCell id="_aZRVZ8RXkz7k147GbF6-4" value="+ verEducacion(Model model): String" style="text;strokeColor=none;fillColor=none;align=left;verticalAlign=top;spacingLeft=4;spacingRight=4;overflow=hidden;rotatable=0;points=[[0,0.5],[1,0.5]];portConstraint=eastwest;whiteSpace=wrap;html=1;" parent="K4xMcO6IJz8VH5AZFiYE-14" vertex="1"><mxGeometry y="346" width="230" height="26" as="geometry"/></mxCell><mxCell id="fhrFDsGuwFO-u_vkNsX--11" style="edgeStyle=orthogonalEdgeStyle;rounded=0;orthogonalLoop=1;jettySize=auto;html=1;endSize=16;endArrow=diamondThin;endFill=0;" parent="1" source="K4xMcO6IJz8VH5AZFiYE-24" target="K4xMcO6IJz8VH5AZFiYE-1" edge="1"><mxGeometry relative="1" as="geometry"/></mxCell><mxCell id="K4xMcO6IJz8VH5AZFiYE-24" value="&lt;i style=&quot;font-weight: normal;&quot;&gt;&amp;lt;&amp;lt;Interface&amp;gt;&amp;gt;&lt;/i&gt;&lt;br&gt;PropietarioRepository" style="swimlane;fontStyle=1;align=center;verticalAlign=top;childLayout=stackLayout;horizontal=1;startSize=40;horizontalStack=0;resizeParent=1;resizeParentMax=0;resizeLast=0;collapsible=1;marginBottom=0;whiteSpace=wrap;html=1;fillColor=#d80073;strokeColor=#A50040;sketch=1;curveFitting=1;jiggle=2;fillStyle=solid;fontColor=#ffffff;" parent="1" vertex="1"><mxGeometry x="1200" y="1821" width="230" height="48" as="geometry"/></mxCell><mxCell id="K4xMcO6IJz8VH5AZFiYE-25" value="" style="line;strokeWidth=1;fillColor=none;align=left;verticalAlign=middle;spacingTop=-1;spacingLeft=3;spacingRight=3;rotatable=0;labelPosition=right;points=[];portConstraint=eastwest;strokeColor=inherit;" parent="K4xMcO6IJz8VH5AZFiYE-24" vertex="1"><mxGeometry y="40" width="230" height="8" as="geometry"/></mxCell><mxCell id="p0kd9rkzA9ihmDL9bvHe-8" style="edgeStyle=orthogonalEdgeStyle;rounded=0;orthogonalLoop=1;jettySize=auto;html=1;endSize=16;endArrow=block;endFill=0;dashed=1;" parent="1" source="wCool0zEFwoXkRqDd2qd-1" target="wCool0zEFwoXkRqDd2qd-6" edge="1"><mxGeometry relative="1" as="geometry"/></mxCell><mxCell id="wCool0zEFwoXkRqDd2qd-1" value="RedSocialServiceImpl" style="swimlane;fontStyle=1;align=center;verticalAlign=top;childLayout=stackLayout;horizontal=1;startSize=26;horizontalStack=0;resizeParent=1;resizeParentMax=0;resizeLast=0;collapsible=1;marginBottom=0;whiteSpace=wrap;html=1;fillColor=#008a00;strokeColor=#005700;fillStyle=solid;sketch=1;curveFitting=1;jiggle=2;fontColor=#ffffff;" parent="1" vertex="1"><mxGeometry x="1770" y="1685" width="270" height="138" as="geometry"/></mxCell><mxCell id="wCool0zEFwoXkRqDd2qd-2" value="" style="line;strokeWidth=1;fillColor=none;align=left;verticalAlign=middle;spacingTop=-1;spacingLeft=3;spacingRight=3;rotatable=0;labelPosition=right;points=[];portConstraint=eastwest;strokeColor=inherit;" parent="wCool0zEFwoXkRqDd2qd-1" vertex="1"><mxGeometry y="26" width="270" height="8" as="geometry"/></mxCell><mxCell id="wCool0zEFwoXkRqDd2qd-3" value="+ verTodas(): List&amp;lt;RedSocial&amp;gt;" style="text;strokeColor=none;fillColor=none;align=left;verticalAlign=top;spacingLeft=4;spacingRight=4;overflow=hidden;rotatable=0;points=[[0,0.5],[1,0.5]];portConstraint=eastwest;whiteSpace=wrap;html=1;" parent="wCool0zEFwoXkRqDd2qd-1" vertex="1"><mxGeometry y="34" width="270" height="26" as="geometry"/></mxCell><mxCell id="wCool0zEFwoXkRqDd2qd-4" value="+ crear(RedSocial redSocial): RedSocial" style="text;strokeColor=none;fillColor=none;align=left;verticalAlign=top;spacingLeft=4;spacingRight=4;overflow=hidden;rotatable=0;points=[[0,0.5],[1,0.5]];portConstraint=eastwest;whiteSpace=wrap;html=1;" parent="wCool0zEFwoXkRqDd2qd-1" vertex="1"><mxGeometry y="60" width="270" height="26" as="geometry"/></mxCell><mxCell id="TY2kmpkhEq1C_p3lge4C-2" value="+ actualizar(RedSocial redSocial): RedSocial" style="text;strokeColor=none;fillColor=none;align=left;verticalAlign=top;spacingLeft=4;spacingRight=4;overflow=hidden;rotatable=0;points=[[0,0.5],[1,0.5]];portConstraint=eastwest;whiteSpace=wrap;html=1;" parent="wCool0zEFwoXkRqDd2qd-1" vertex="1"><mxGeometry y="86" width="270" height="26" as="geometry"/></mxCell><mxCell id="fhrFDsGuwFO-u_vkNsX--2" value="&lt;span style=&quot;color: rgb(0, 0, 0); font-family: Helvetica; font-size: 12px; font-style: normal; font-variant-ligatures: normal; font-variant-caps: normal; font-weight: 400; letter-spacing: normal; orphans: 2; text-align: left; text-indent: 0px; text-transform: none; widows: 2; word-spacing: 0px; -webkit-text-stroke-width: 0px; text-decoration-thickness: initial; text-decoration-style: initial; text-decoration-color: initial; float: none; display: inline !important; background-color: rgb(251, 251, 251);&quot;&gt;+ eliminar(Long id): void&lt;/span&gt;" style="text;strokeColor=none;fillColor=none;align=left;verticalAlign=top;spacingLeft=4;spacingRight=4;overflow=hidden;rotatable=0;points=[[0,0.5],[1,0.5]];portConstraint=eastwest;whiteSpace=wrap;html=1;" parent="wCool0zEFwoXkRqDd2qd-1" vertex="1"><mxGeometry y="112" width="270" height="26" as="geometry"/></mxCell><mxCell id="fhrFDsGuwFO-u_vkNsX--24" style="edgeStyle=orthogonalEdgeStyle;rounded=0;orthogonalLoop=1;jettySize=auto;html=1;endArrow=diamondThin;endFill=0;endSize=16;" parent="1" source="wCool0zEFwoXkRqDd2qd-6" target="K4xMcO6IJz8VH5AZFiYE-14" edge="1"><mxGeometry relative="1" as="geometry"><Array as="points"><mxPoint x="1835" y="1540"/><mxPoint x="1690" y="1540"/></Array></mxGeometry></mxCell><mxCell id="fhrFDsGuwFO-u_vkNsX--25" style="edgeStyle=orthogonalEdgeStyle;rounded=0;orthogonalLoop=1;jettySize=auto;html=1;endArrow=diamondThin;endFill=0;endSize=16;" parent="1" source="wCool0zEFwoXkRqDd2qd-6" target="fhrFDsGuwFO-u_vkNsX--17" edge="1"><mxGeometry relative="1" as="geometry"><Array as="points"><mxPoint x="1930" y="1490"/><mxPoint x="1930" y="1490"/></Array></mxGeometry></mxCell><mxCell id="wCool0zEFwoXkRqDd2qd-6" value="&lt;i style=&quot;font-weight: normal;&quot;&gt;&amp;lt;&amp;lt;Interface&amp;gt;&amp;gt;&lt;/i&gt;&lt;br&gt;RedSocialService" style="swimlane;fontStyle=1;align=center;verticalAlign=top;childLayout=stackLayout;horizontal=1;startSize=40;horizontalStack=0;resizeParent=1;resizeParentMax=0;resizeLast=0;collapsible=1;marginBottom=0;whiteSpace=wrap;html=1;fillColor=#1ba1e2;strokeColor=#006EAF;sketch=1;curveFitting=1;jiggle=2;fillStyle=solid;fontColor=#ffffff;" parent="1" vertex="1"><mxGeometry x="1770" y="1501" width="270" height="152" as="geometry"/></mxCell><mxCell id="wCool0zEFwoXkRqDd2qd-7" value="" style="line;strokeWidth=1;fillColor=none;align=left;verticalAlign=middle;spacingTop=-1;spacingLeft=3;spacingRight=3;rotatable=0;labelPosition=right;points=[];portConstraint=eastwest;strokeColor=inherit;" parent="wCool0zEFwoXkRqDd2qd-6" vertex="1"><mxGeometry y="40" width="270" height="8" as="geometry"/></mxCell><mxCell id="wCool0zEFwoXkRqDd2qd-8" value="+ verTodas(): List&amp;lt;RedSocial&amp;gt;" style="text;strokeColor=none;fillColor=none;align=left;verticalAlign=top;spacingLeft=4;spacingRight=4;overflow=hidden;rotatable=0;points=[[0,0.5],[1,0.5]];portConstraint=eastwest;whiteSpace=wrap;html=1;" parent="wCool0zEFwoXkRqDd2qd-6" vertex="1"><mxGeometry y="48" width="270" height="26" as="geometry"/></mxCell><mxCell id="wCool0zEFwoXkRqDd2qd-9" value="+ crear(RedSocial redSocial): RedSocial" style="text;strokeColor=none;fillColor=none;align=left;verticalAlign=top;spacingLeft=4;spacingRight=4;overflow=hidden;rotatable=0;points=[[0,0.5],[1,0.5]];portConstraint=eastwest;whiteSpace=wrap;html=1;" parent="wCool0zEFwoXkRqDd2qd-6" vertex="1"><mxGeometry y="74" width="270" height="26" as="geometry"/></mxCell><mxCell id="TY2kmpkhEq1C_p3lge4C-1" value="+ actualizar(RedSocial redSocial): RedSocial" style="text;strokeColor=none;fillColor=none;align=left;verticalAlign=top;spacingLeft=4;spacingRight=4;overflow=hidden;rotatable=0;points=[[0,0.5],[1,0.5]];portConstraint=eastwest;whiteSpace=wrap;html=1;" parent="wCool0zEFwoXkRqDd2qd-6" vertex="1"><mxGeometry y="100" width="270" height="26" as="geometry"/></mxCell><mxCell id="fhrFDsGuwFO-u_vkNsX--1" value="+ eliminar(Long id): void" style="text;strokeColor=none;fillColor=none;align=left;verticalAlign=top;spacingLeft=4;spacingRight=4;overflow=hidden;rotatable=0;points=[[0,0.5],[1,0.5]];portConstraint=eastwest;whiteSpace=wrap;html=1;" parent="wCool0zEFwoXkRqDd2qd-6" vertex="1"><mxGeometry y="126" width="270" height="26" as="geometry"/></mxCell><mxCell id="fhrFDsGuwFO-u_vkNsX--16" style="edgeStyle=orthogonalEdgeStyle;rounded=0;orthogonalLoop=1;jettySize=auto;html=1;endArrow=diamondThin;endFill=0;endSize=16;" parent="1" source="fhrFDsGuwFO-u_vkNsX--5" target="wCool0zEFwoXkRqDd2qd-1" edge="1"><mxGeometry relative="1" as="geometry"/></mxCell><mxCell id="fhrFDsGuwFO-u_vkNsX--5" value="&lt;i style=&quot;font-weight: normal;&quot;&gt;&amp;lt;&amp;lt;Interface&amp;gt;&amp;gt;&lt;/i&gt;&lt;br&gt;RedSocialRepository" style="swimlane;fontStyle=1;align=center;verticalAlign=top;childLayout=stackLayout;horizontal=1;startSize=40;horizontalStack=0;resizeParent=1;resizeParentMax=0;resizeLast=0;collapsible=1;marginBottom=0;whiteSpace=wrap;html=1;fillColor=#d80073;strokeColor=#A50040;sketch=1;curveFitting=1;jiggle=2;fillStyle=solid;fontColor=#ffffff;" parent="1" vertex="1"><mxGeometry x="1790" y="1860" width="230" height="48" as="geometry"/></mxCell><mxCell id="fhrFDsGuwFO-u_vkNsX--6" value="" style="line;strokeWidth=1;fillColor=none;align=left;verticalAlign=middle;spacingTop=-1;spacingLeft=3;spacingRight=3;rotatable=0;labelPosition=right;points=[];portConstraint=eastwest;strokeColor=inherit;" parent="fhrFDsGuwFO-u_vkNsX--5" vertex="1"><mxGeometry y="40" width="230" height="8" as="geometry"/></mxCell><mxCell id="fhrFDsGuwFO-u_vkNsX--17" value="RedSocialRestController" style="swimlane;fontStyle=1;align=center;verticalAlign=top;childLayout=stackLayout;horizontal=1;startSize=26;horizontalStack=0;resizeParent=1;resizeParentMax=0;resizeLast=0;collapsible=1;marginBottom=0;whiteSpace=wrap;html=1;fillColor=#fa6800;strokeColor=#C73500;fillStyle=solid;sketch=1;curveFitting=1;jiggle=2;fontColor=#000000;" parent="1" vertex="1"><mxGeometry x="1770" y="1299" width="280" height="138" as="geometry"/></mxCell><mxCell id="fhrFDsGuwFO-u_vkNsX--18" value="- RedSocialService: redSocialService" style="text;strokeColor=none;fillColor=none;align=left;verticalAlign=top;spacingLeft=4;spacingRight=4;overflow=hidden;rotatable=0;points=[[0,0.5],[1,0.5]];portConstraint=eastwest;whiteSpace=wrap;html=1;" parent="fhrFDsGuwFO-u_vkNsX--17" vertex="1"><mxGeometry y="26" width="280" height="26" as="geometry"/></mxCell><mxCell id="fhrFDsGuwFO-u_vkNsX--19" value="" style="line;strokeWidth=1;fillColor=none;align=left;verticalAlign=middle;spacingTop=-1;spacingLeft=3;spacingRight=3;rotatable=0;labelPosition=right;points=[];portConstraint=eastwest;strokeColor=inherit;" parent="fhrFDsGuwFO-u_vkNsX--17" vertex="1"><mxGeometry y="52" width="280" height="8" as="geometry"/></mxCell><mxCell id="fhrFDsGuwFO-u_vkNsX--20" value="+ crear(RedSocial redSocial): void" style="text;strokeColor=none;fillColor=none;align=left;verticalAlign=top;spacingLeft=4;spacingRight=4;overflow=hidden;rotatable=0;points=[[0,0.5],[1,0.5]];portConstraint=eastwest;whiteSpace=wrap;html=1;" parent="fhrFDsGuwFO-u_vkNsX--17" vertex="1"><mxGeometry y="60" width="280" height="26" as="geometry"/></mxCell><mxCell id="fhrFDsGuwFO-u_vkNsX--21" value="+ actualizar(RedSocial redSocial): void" style="text;strokeColor=none;fillColor=none;align=left;verticalAlign=top;spacingLeft=4;spacingRight=4;overflow=hidden;rotatable=0;points=[[0,0.5],[1,0.5]];portConstraint=eastwest;whiteSpace=wrap;html=1;" parent="fhrFDsGuwFO-u_vkNsX--17" vertex="1"><mxGeometry y="86" width="280" height="26" as="geometry"/></mxCell><mxCell id="fhrFDsGuwFO-u_vkNsX--22" value="+ eliminar(Long id): void" style="text;strokeColor=none;fillColor=none;align=left;verticalAlign=top;spacingLeft=4;spacingRight=4;overflow=hidden;rotatable=0;points=[[0,0.5],[1,0.5]];portConstraint=eastwest;whiteSpace=wrap;html=1;" parent="fhrFDsGuwFO-u_vkNsX--17" vertex="1"><mxGeometry y="112" width="280" height="26" as="geometry"/></mxCell><mxCell id="h4Y01j1B2Agyef4tRmp--17" style="edgeStyle=orthogonalEdgeStyle;rounded=0;orthogonalLoop=1;jettySize=auto;html=1;endArrow=diamondThin;endFill=0;endSize=16;" parent="1" source="fhrFDsGuwFO-u_vkNsX--27" target="h4Y01j1B2Agyef4tRmp--11" edge="1"><mxGeometry relative="1" as="geometry"/></mxCell><mxCell id="fhrFDsGuwFO-u_vkNsX--27" value="&lt;i style=&quot;font-weight: normal;&quot;&gt;&amp;lt;&amp;lt;Interface&amp;gt;&amp;gt;&lt;/i&gt;&lt;br&gt;ServicioService" style="swimlane;fontStyle=1;align=center;verticalAlign=top;childLayout=stackLayout;horizontal=1;startSize=40;horizontalStack=0;resizeParent=1;resizeParentMax=0;resizeLast=0;collapsible=1;marginBottom=0;whiteSpace=wrap;html=1;fillColor=#1ba1e2;strokeColor=#006EAF;sketch=1;curveFitting=1;jiggle=2;fillStyle=solid;fontColor=#ffffff;" parent="1" vertex="1"><mxGeometry x="820" y="1500" width="230" height="126" as="geometry"/></mxCell><mxCell id="fhrFDsGuwFO-u_vkNsX--28" value="" style="line;strokeWidth=1;fillColor=none;align=left;verticalAlign=middle;spacingTop=-1;spacingLeft=3;spacingRight=3;rotatable=0;labelPosition=right;points=[];portConstraint=eastwest;strokeColor=inherit;" parent="fhrFDsGuwFO-u_vkNsX--27" vertex="1"><mxGeometry y="40" width="230" height="8" as="geometry"/></mxCell><mxCell id="fhrFDsGuwFO-u_vkNsX--29" value="+ verTodos(): List&amp;lt;Servicio&amp;gt;" style="text;strokeColor=none;fillColor=none;align=left;verticalAlign=top;spacingLeft=4;spacingRight=4;overflow=hidden;rotatable=0;points=[[0,0.5],[1,0.5]];portConstraint=eastwest;whiteSpace=wrap;html=1;" parent="fhrFDsGuwFO-u_vkNsX--27" vertex="1"><mxGeometry y="48" width="230" height="26" as="geometry"/></mxCell><mxCell id="fhrFDsGuwFO-u_vkNsX--30" value="+ guardar(Servicio servicio) void" style="text;strokeColor=none;fillColor=none;align=left;verticalAlign=top;spacingLeft=4;spacingRight=4;overflow=hidden;rotatable=0;points=[[0,0.5],[1,0.5]];portConstraint=eastwest;whiteSpace=wrap;html=1;" parent="fhrFDsGuwFO-u_vkNsX--27" vertex="1"><mxGeometry y="74" width="230" height="26" as="geometry"/></mxCell><mxCell id="7qbG2KHBFPly_Np7Dfwy-2" value="+ eliminar(Long id): void" style="text;strokeColor=none;fillColor=none;align=left;verticalAlign=top;spacingLeft=4;spacingRight=4;overflow=hidden;rotatable=0;points=[[0,0.5],[1,0.5]];portConstraint=eastwest;whiteSpace=wrap;html=1;" parent="fhrFDsGuwFO-u_vkNsX--27" vertex="1"><mxGeometry y="100" width="230" height="26" as="geometry"/></mxCell><mxCell id="p0kd9rkzA9ihmDL9bvHe-3" style="edgeStyle=orthogonalEdgeStyle;rounded=0;orthogonalLoop=1;jettySize=auto;html=1;endArrow=block;endFill=0;endSize=16;dashed=1;" parent="1" source="h4Y01j1B2Agyef4tRmp--1" target="fhrFDsGuwFO-u_vkNsX--27" edge="1"><mxGeometry relative="1" as="geometry"/></mxCell><mxCell id="h4Y01j1B2Agyef4tRmp--1" value="ServicioServiceImpl" style="swimlane;fontStyle=1;align=center;verticalAlign=top;childLayout=stackLayout;horizontal=1;startSize=26;horizontalStack=0;resizeParent=1;resizeParentMax=0;resizeLast=0;collapsible=1;marginBottom=0;whiteSpace=wrap;html=1;fillColor=#008a00;strokeColor=#005700;fillStyle=solid;sketch=1;curveFitting=1;jiggle=2;fontColor=#ffffff;" parent="1" vertex="1"><mxGeometry x="800" y="1685" width="270" height="112" as="geometry"/></mxCell><mxCell id="h4Y01j1B2Agyef4tRmp--2" value="" style="line;strokeWidth=1;fillColor=none;align=left;verticalAlign=middle;spacingTop=-1;spacingLeft=3;spacingRight=3;rotatable=0;labelPosition=right;points=[];portConstraint=eastwest;strokeColor=inherit;" parent="h4Y01j1B2Agyef4tRmp--1" vertex="1"><mxGeometry y="26" width="270" height="8" as="geometry"/></mxCell><mxCell id="h4Y01j1B2Agyef4tRmp--3" value="+ verTodos(): List&amp;lt;Servicio&amp;gt;" style="text;strokeColor=none;fillColor=none;align=left;verticalAlign=top;spacingLeft=4;spacingRight=4;overflow=hidden;rotatable=0;points=[[0,0.5],[1,0.5]];portConstraint=eastwest;whiteSpace=wrap;html=1;" parent="h4Y01j1B2Agyef4tRmp--1" vertex="1"><mxGeometry y="34" width="270" height="26" as="geometry"/></mxCell><mxCell id="h4Y01j1B2Agyef4tRmp--4" value="+ guardar(Servicio servicio): void" style="text;strokeColor=none;fillColor=none;align=left;verticalAlign=top;spacingLeft=4;spacingRight=4;overflow=hidden;rotatable=0;points=[[0,0.5],[1,0.5]];portConstraint=eastwest;whiteSpace=wrap;html=1;" parent="h4Y01j1B2Agyef4tRmp--1" vertex="1"><mxGeometry y="60" width="270" height="26" as="geometry"/></mxCell><mxCell id="h4Y01j1B2Agyef4tRmp--6" value="+ eliminar(Long id): void" style="text;strokeColor=none;fillColor=none;align=left;verticalAlign=top;spacingLeft=4;spacingRight=4;overflow=hidden;rotatable=0;points=[[0,0.5],[1,0.5]];portConstraint=eastwest;whiteSpace=wrap;html=1;" parent="h4Y01j1B2Agyef4tRmp--1" vertex="1"><mxGeometry y="86" width="270" height="26" as="geometry"/></mxCell><mxCell id="h4Y01j1B2Agyef4tRmp--9" style="edgeStyle=orthogonalEdgeStyle;rounded=0;orthogonalLoop=1;jettySize=auto;html=1;endArrow=diamondThin;endFill=0;endSize=16;" parent="1" source="h4Y01j1B2Agyef4tRmp--7" target="h4Y01j1B2Agyef4tRmp--1" edge="1"><mxGeometry relative="1" as="geometry"/></mxCell><mxCell id="h4Y01j1B2Agyef4tRmp--7" value="&lt;i style=&quot;font-weight: normal;&quot;&gt;&amp;lt;&amp;lt;Interface&amp;gt;&amp;gt;&lt;/i&gt;&lt;br&gt;ServicioRepository" style="swimlane;fontStyle=1;align=center;verticalAlign=top;childLayout=stackLayout;horizontal=1;startSize=40;horizontalStack=0;resizeParent=1;resizeParentMax=0;resizeLast=0;collapsible=1;marginBottom=0;whiteSpace=wrap;html=1;fillColor=#d80073;strokeColor=#A50040;sketch=1;curveFitting=1;jiggle=2;fillStyle=solid;fontColor=#ffffff;" parent="1" vertex="1"><mxGeometry x="820" y="1850" width="230" height="48" as="geometry"/></mxCell><mxCell id="h4Y01j1B2Agyef4tRmp--8" value="" style="line;strokeWidth=1;fillColor=none;align=left;verticalAlign=middle;spacingTop=-1;spacingLeft=3;spacingRight=3;rotatable=0;labelPosition=right;points=[];portConstraint=eastwest;strokeColor=inherit;" parent="h4Y01j1B2Agyef4tRmp--7" vertex="1"><mxGeometry y="40" width="230" height="8" as="geometry"/></mxCell><mxCell id="h4Y01j1B2Agyef4tRmp--11" value="ServicioRestController" style="swimlane;fontStyle=1;align=center;verticalAlign=top;childLayout=stackLayout;horizontal=1;startSize=26;horizontalStack=0;resizeParent=1;resizeParentMax=0;resizeLast=0;collapsible=1;marginBottom=0;whiteSpace=wrap;html=1;fillColor=#fa6800;strokeColor=#C73500;fillStyle=solid;sketch=1;curveFitting=1;jiggle=2;fontColor=#000000;" parent="1" vertex="1"><mxGeometry x="790" y="1299" width="290" height="138" as="geometry"/></mxCell><mxCell id="h4Y01j1B2Agyef4tRmp--12" value="- ServicioService: servicioService" style="text;strokeColor=none;fillColor=none;align=left;verticalAlign=top;spacingLeft=4;spacingRight=4;overflow=hidden;rotatable=0;points=[[0,0.5],[1,0.5]];portConstraint=eastwest;whiteSpace=wrap;html=1;" parent="h4Y01j1B2Agyef4tRmp--11" vertex="1"><mxGeometry y="26" width="290" height="26" as="geometry"/></mxCell><mxCell id="h4Y01j1B2Agyef4tRmp--13" value="" style="line;strokeWidth=1;fillColor=none;align=left;verticalAlign=middle;spacingTop=-1;spacingLeft=3;spacingRight=3;rotatable=0;labelPosition=right;points=[];portConstraint=eastwest;strokeColor=inherit;" parent="h4Y01j1B2Agyef4tRmp--11" vertex="1"><mxGeometry y="52" width="290" height="8" as="geometry"/></mxCell><mxCell id="h4Y01j1B2Agyef4tRmp--14" value="+ crear(Servicio service): void" style="text;strokeColor=none;fillColor=none;align=left;verticalAlign=top;spacingLeft=4;spacingRight=4;overflow=hidden;rotatable=0;points=[[0,0.5],[1,0.5]];portConstraint=eastwest;whiteSpace=wrap;html=1;" parent="h4Y01j1B2Agyef4tRmp--11" vertex="1"><mxGeometry y="60" width="290" height="26" as="geometry"/></mxCell><mxCell id="h4Y01j1B2Agyef4tRmp--15" value="+ actualizar(Servicio service): void" style="text;strokeColor=none;fillColor=none;align=left;verticalAlign=top;spacingLeft=4;spacingRight=4;overflow=hidden;rotatable=0;points=[[0,0.5],[1,0.5]];portConstraint=eastwest;whiteSpace=wrap;html=1;" parent="h4Y01j1B2Agyef4tRmp--11" vertex="1"><mxGeometry y="86" width="290" height="26" as="geometry"/></mxCell><mxCell id="h4Y01j1B2Agyef4tRmp--16" value="+ eliminar(Long id): void" style="text;strokeColor=none;fillColor=none;align=left;verticalAlign=top;spacingLeft=4;spacingRight=4;overflow=hidden;rotatable=0;points=[[0,0.5],[1,0.5]];portConstraint=eastwest;whiteSpace=wrap;html=1;" parent="h4Y01j1B2Agyef4tRmp--11" vertex="1"><mxGeometry y="112" width="290" height="26" as="geometry"/></mxCell><mxCell id="h4Y01j1B2Agyef4tRmp--18" style="edgeStyle=orthogonalEdgeStyle;rounded=0;orthogonalLoop=1;jettySize=auto;html=1;endArrow=diamondThin;endFill=0;endSize=16;sketch=1;" parent="1" source="fhrFDsGuwFO-u_vkNsX--27" target="K4xMcO6IJz8VH5AZFiYE-14" edge="1"><mxGeometry relative="1" as="geometry"><Array as="points"><mxPoint x="1100" y="1570"/><mxPoint x="1100" y="1303"/></Array></mxGeometry></mxCell><mxCell id="h4Y01j1B2Agyef4tRmp--20" style="edgeStyle=orthogonalEdgeStyle;rounded=0;orthogonalLoop=1;jettySize=auto;html=1;endArrow=diamondThin;endFill=0;endSize=16;" parent="1" source="h4Y01j1B2Agyef4tRmp--21" target="h4Y01j1B2Agyef4tRmp--35" edge="1"><mxGeometry relative="1" as="geometry"/></mxCell><mxCell id="p0kd9rkzA9ihmDL9bvHe-4" style="edgeStyle=orthogonalEdgeStyle;rounded=0;orthogonalLoop=1;jettySize=auto;html=1;endArrow=diamondThin;endFill=0;endSize=16;" parent="1" source="h4Y01j1B2Agyef4tRmp--21" target="K4xMcO6IJz8VH5AZFiYE-14" edge="1"><mxGeometry relative="1" as="geometry"><Array as="points"><mxPoint x="750" y="1563"/><mxPoint x="750" y="1250"/></Array></mxGeometry></mxCell><mxCell id="h4Y01j1B2Agyef4tRmp--21" value="&lt;i style=&quot;font-weight: normal;&quot;&gt;&amp;lt;&amp;lt;Interface&amp;gt;&amp;gt;&lt;/i&gt;&lt;br&gt;HabilidadService" style="swimlane;fontStyle=1;align=center;verticalAlign=top;childLayout=stackLayout;horizontal=1;startSize=40;horizontalStack=0;resizeParent=1;resizeParentMax=0;resizeLast=0;collapsible=1;marginBottom=0;whiteSpace=wrap;html=1;fillColor=#1ba1e2;strokeColor=#006EAF;sketch=1;curveFitting=1;jiggle=2;fillStyle=solid;fontColor=#ffffff;" parent="1" vertex="1"><mxGeometry x="460" y="1500" width="230" height="126" as="geometry"/></mxCell><mxCell id="h4Y01j1B2Agyef4tRmp--22" value="" style="line;strokeWidth=1;fillColor=none;align=left;verticalAlign=middle;spacingTop=-1;spacingLeft=3;spacingRight=3;rotatable=0;labelPosition=right;points=[];portConstraint=eastwest;strokeColor=inherit;" parent="h4Y01j1B2Agyef4tRmp--21" vertex="1"><mxGeometry y="40" width="230" height="8" as="geometry"/></mxCell><mxCell id="h4Y01j1B2Agyef4tRmp--23" value="+ verTodas(): List&amp;lt;Habilidad&amp;gt;" style="text;strokeColor=none;fillColor=none;align=left;verticalAlign=top;spacingLeft=4;spacingRight=4;overflow=hidden;rotatable=0;points=[[0,0.5],[1,0.5]];portConstraint=eastwest;whiteSpace=wrap;html=1;" parent="h4Y01j1B2Agyef4tRmp--21" vertex="1"><mxGeometry y="48" width="230" height="26" as="geometry"/></mxCell><mxCell id="h4Y01j1B2Agyef4tRmp--24" value="+ guardar(Habilidad habilidad) void" style="text;strokeColor=none;fillColor=none;align=left;verticalAlign=top;spacingLeft=4;spacingRight=4;overflow=hidden;rotatable=0;points=[[0,0.5],[1,0.5]];portConstraint=eastwest;whiteSpace=wrap;html=1;" parent="h4Y01j1B2Agyef4tRmp--21" vertex="1"><mxGeometry y="74" width="230" height="26" as="geometry"/></mxCell><mxCell id="h4Y01j1B2Agyef4tRmp--25" value="+ eliminar(Long id): void" style="text;strokeColor=none;fillColor=none;align=left;verticalAlign=top;spacingLeft=4;spacingRight=4;overflow=hidden;rotatable=0;points=[[0,0.5],[1,0.5]];portConstraint=eastwest;whiteSpace=wrap;html=1;" parent="h4Y01j1B2Agyef4tRmp--21" vertex="1"><mxGeometry y="100" width="230" height="26" as="geometry"/></mxCell><mxCell id="p0kd9rkzA9ihmDL9bvHe-5" style="edgeStyle=orthogonalEdgeStyle;rounded=0;orthogonalLoop=1;jettySize=auto;html=1;endSize=16;endArrow=block;endFill=0;dashed=1;" parent="1" source="h4Y01j1B2Agyef4tRmp--26" target="h4Y01j1B2Agyef4tRmp--21" edge="1"><mxGeometry relative="1" as="geometry"/></mxCell><mxCell id="h4Y01j1B2Agyef4tRmp--26" value="HabilidadServiceImpl" style="swimlane;fontStyle=1;align=center;verticalAlign=top;childLayout=stackLayout;horizontal=1;startSize=26;horizontalStack=0;resizeParent=1;resizeParentMax=0;resizeLast=0;collapsible=1;marginBottom=0;whiteSpace=wrap;html=1;fillColor=#008a00;strokeColor=#005700;fillStyle=solid;sketch=1;curveFitting=1;jiggle=2;fontColor=#ffffff;" parent="1" vertex="1"><mxGeometry x="440" y="1688" width="270" height="112" as="geometry"/></mxCell><mxCell id="h4Y01j1B2Agyef4tRmp--27" value="" style="line;strokeWidth=1;fillColor=none;align=left;verticalAlign=middle;spacingTop=-1;spacingLeft=3;spacingRight=3;rotatable=0;labelPosition=right;points=[];portConstraint=eastwest;strokeColor=inherit;" parent="h4Y01j1B2Agyef4tRmp--26" vertex="1"><mxGeometry y="26" width="270" height="8" as="geometry"/></mxCell><mxCell id="h4Y01j1B2Agyef4tRmp--28" value="+ verTodas(): List&amp;lt;Habilidad&amp;gt;" style="text;strokeColor=none;fillColor=none;align=left;verticalAlign=top;spacingLeft=4;spacingRight=4;overflow=hidden;rotatable=0;points=[[0,0.5],[1,0.5]];portConstraint=eastwest;whiteSpace=wrap;html=1;" parent="h4Y01j1B2Agyef4tRmp--26" vertex="1"><mxGeometry y="34" width="270" height="26" as="geometry"/></mxCell><mxCell id="h4Y01j1B2Agyef4tRmp--29" value="+ guardar(Habilidad habilidad): void" style="text;strokeColor=none;fillColor=none;align=left;verticalAlign=top;spacingLeft=4;spacingRight=4;overflow=hidden;rotatable=0;points=[[0,0.5],[1,0.5]];portConstraint=eastwest;whiteSpace=wrap;html=1;" parent="h4Y01j1B2Agyef4tRmp--26" vertex="1"><mxGeometry y="60" width="270" height="26" as="geometry"/></mxCell><mxCell id="h4Y01j1B2Agyef4tRmp--30" value="+ eliminar(Long id): void" style="text;strokeColor=none;fillColor=none;align=left;verticalAlign=top;spacingLeft=4;spacingRight=4;overflow=hidden;rotatable=0;points=[[0,0.5],[1,0.5]];portConstraint=eastwest;whiteSpace=wrap;html=1;" parent="h4Y01j1B2Agyef4tRmp--26" vertex="1"><mxGeometry y="86" width="270" height="26" as="geometry"/></mxCell><mxCell id="h4Y01j1B2Agyef4tRmp--31" style="edgeStyle=orthogonalEdgeStyle;rounded=0;orthogonalLoop=1;jettySize=auto;html=1;endArrow=diamondThin;endFill=0;endSize=16;" parent="1" source="h4Y01j1B2Agyef4tRmp--32" target="h4Y01j1B2Agyef4tRmp--26" edge="1"><mxGeometry relative="1" as="geometry"/></mxCell><mxCell id="h4Y01j1B2Agyef4tRmp--32" value="&lt;i style=&quot;font-weight: normal;&quot;&gt;&amp;lt;&amp;lt;Interface&amp;gt;&amp;gt;&lt;/i&gt;&lt;br&gt;HabilidadRepository" style="swimlane;fontStyle=1;align=center;verticalAlign=top;childLayout=stackLayout;horizontal=1;startSize=40;horizontalStack=0;resizeParent=1;resizeParentMax=0;resizeLast=0;collapsible=1;marginBottom=0;whiteSpace=wrap;html=1;fillColor=#d80073;strokeColor=#A50040;sketch=1;curveFitting=1;jiggle=2;fillStyle=solid;fontColor=#ffffff;" parent="1" vertex="1"><mxGeometry x="460" y="1850" width="230" height="48" as="geometry"/></mxCell><mxCell id="h4Y01j1B2Agyef4tRmp--33" value="" style="line;strokeWidth=1;fillColor=none;align=left;verticalAlign=middle;spacingTop=-1;spacingLeft=3;spacingRight=3;rotatable=0;labelPosition=right;points=[];portConstraint=eastwest;strokeColor=inherit;" parent="h4Y01j1B2Agyef4tRmp--32" vertex="1"><mxGeometry y="40" width="230" height="8" as="geometry"/></mxCell><mxCell id="h4Y01j1B2Agyef4tRmp--35" value="HabilidadRestController" style="swimlane;fontStyle=1;align=center;verticalAlign=top;childLayout=stackLayout;horizontal=1;startSize=26;horizontalStack=0;resizeParent=1;resizeParentMax=0;resizeLast=0;collapsible=1;marginBottom=0;whiteSpace=wrap;html=1;fillColor=#fa6800;strokeColor=#C73500;fillStyle=solid;sketch=1;curveFitting=1;jiggle=2;fontColor=#000000;" parent="1" vertex="1"><mxGeometry x="430" y="1299" width="290" height="138" as="geometry"/></mxCell><mxCell id="h4Y01j1B2Agyef4tRmp--36" value="- HabilidadService: habilidadService" style="text;strokeColor=none;fillColor=none;align=left;verticalAlign=top;spacingLeft=4;spacingRight=4;overflow=hidden;rotatable=0;points=[[0,0.5],[1,0.5]];portConstraint=eastwest;whiteSpace=wrap;html=1;" parent="h4Y01j1B2Agyef4tRmp--35" vertex="1"><mxGeometry y="26" width="290" height="26" as="geometry"/></mxCell><mxCell id="h4Y01j1B2Agyef4tRmp--37" value="" style="line;strokeWidth=1;fillColor=none;align=left;verticalAlign=middle;spacingTop=-1;spacingLeft=3;spacingRight=3;rotatable=0;labelPosition=right;points=[];portConstraint=eastwest;strokeColor=inherit;" parent="h4Y01j1B2Agyef4tRmp--35" vertex="1"><mxGeometry y="52" width="290" height="8" as="geometry"/></mxCell><mxCell id="h4Y01j1B2Agyef4tRmp--38" value="+ crear(Habilidad habilidad): void" style="text;strokeColor=none;fillColor=none;align=left;verticalAlign=top;spacingLeft=4;spacingRight=4;overflow=hidden;rotatable=0;points=[[0,0.5],[1,0.5]];portConstraint=eastwest;whiteSpace=wrap;html=1;" parent="h4Y01j1B2Agyef4tRmp--35" vertex="1"><mxGeometry y="60" width="290" height="26" as="geometry"/></mxCell><mxCell id="h4Y01j1B2Agyef4tRmp--39" value="+ actualizar(Habilidad habilidad): void" style="text;strokeColor=none;fillColor=none;align=left;verticalAlign=top;spacingLeft=4;spacingRight=4;overflow=hidden;rotatable=0;points=[[0,0.5],[1,0.5]];portConstraint=eastwest;whiteSpace=wrap;html=1;" parent="h4Y01j1B2Agyef4tRmp--35" vertex="1"><mxGeometry y="86" width="290" height="26" as="geometry"/></mxCell><mxCell id="h4Y01j1B2Agyef4tRmp--40" value="+ eliminar(Long id): void" style="text;strokeColor=none;fillColor=none;align=left;verticalAlign=top;spacingLeft=4;spacingRight=4;overflow=hidden;rotatable=0;points=[[0,0.5],[1,0.5]];portConstraint=eastwest;whiteSpace=wrap;html=1;" parent="h4Y01j1B2Agyef4tRmp--35" vertex="1"><mxGeometry y="112" width="290" height="26" as="geometry"/></mxCell><mxCell id="GJZl_H41ChBDgXwOMqB0-21" style="edgeStyle=orthogonalEdgeStyle;rounded=0;orthogonalLoop=1;jettySize=auto;html=1;endArrow=diamondThin;endFill=0;endSize=16;" parent="1" source="GJZl_H41ChBDgXwOMqB0-1" target="GJZl_H41ChBDgXwOMqB0-15" edge="1"><mxGeometry relative="1" as="geometry"/></mxCell><mxCell id="GJZl_H41ChBDgXwOMqB0-23" style="edgeStyle=orthogonalEdgeStyle;rounded=0;orthogonalLoop=1;jettySize=auto;html=1;endArrow=diamondThin;endFill=0;endSize=16;" parent="1" source="GJZl_H41ChBDgXwOMqB0-1" target="K4xMcO6IJz8VH5AZFiYE-14" edge="1"><mxGeometry relative="1" as="geometry"><Array as="points"><mxPoint x="2070" y="1563"/><mxPoint x="2070" y="1230"/></Array></mxGeometry></mxCell><mxCell id="GJZl_H41ChBDgXwOMqB0-1" value="&lt;i style=&quot;font-weight: normal;&quot;&gt;&amp;lt;&amp;lt;Interface&amp;gt;&amp;gt;&lt;/i&gt;&lt;br&gt;ProyectoService" style="swimlane;fontStyle=1;align=center;verticalAlign=top;childLayout=stackLayout;horizontal=1;startSize=40;horizontalStack=0;resizeParent=1;resizeParentMax=0;resizeLast=0;collapsible=1;marginBottom=0;whiteSpace=wrap;html=1;fillColor=#1ba1e2;strokeColor=#006EAF;sketch=1;curveFitting=1;jiggle=2;fillStyle=solid;fontColor=#ffffff;" parent="1" vertex="1"><mxGeometry x="2130" y="1500" width="230" height="126" as="geometry"/></mxCell><mxCell id="GJZl_H41ChBDgXwOMqB0-2" value="" style="line;strokeWidth=1;fillColor=none;align=left;verticalAlign=middle;spacingTop=-1;spacingLeft=3;spacingRight=3;rotatable=0;labelPosition=right;points=[];portConstraint=eastwest;strokeColor=inherit;" parent="GJZl_H41ChBDgXwOMqB0-1" vertex="1"><mxGeometry y="40" width="230" height="8" as="geometry"/></mxCell><mxCell id="GJZl_H41ChBDgXwOMqB0-3" value="+ verTodos(): List&amp;lt;Proyecto&amp;gt;" style="text;strokeColor=none;fillColor=none;align=left;verticalAlign=top;spacingLeft=4;spacingRight=4;overflow=hidden;rotatable=0;points=[[0,0.5],[1,0.5]];portConstraint=eastwest;whiteSpace=wrap;html=1;" parent="GJZl_H41ChBDgXwOMqB0-1" vertex="1"><mxGeometry y="48" width="230" height="26" as="geometry"/></mxCell><mxCell id="GJZl_H41ChBDgXwOMqB0-4" value="+ guardar(Proyecto proyecto) void" style="text;strokeColor=none;fillColor=none;align=left;verticalAlign=top;spacingLeft=4;spacingRight=4;overflow=hidden;rotatable=0;points=[[0,0.5],[1,0.5]];portConstraint=eastwest;whiteSpace=wrap;html=1;" parent="GJZl_H41ChBDgXwOMqB0-1" vertex="1"><mxGeometry y="74" width="230" height="26" as="geometry"/></mxCell><mxCell id="GJZl_H41ChBDgXwOMqB0-5" value="+ eliminar(Long id): void" style="text;strokeColor=none;fillColor=none;align=left;verticalAlign=top;spacingLeft=4;spacingRight=4;overflow=hidden;rotatable=0;points=[[0,0.5],[1,0.5]];portConstraint=eastwest;whiteSpace=wrap;html=1;" parent="GJZl_H41ChBDgXwOMqB0-1" vertex="1"><mxGeometry y="100" width="230" height="26" as="geometry"/></mxCell><mxCell id="p0kd9rkzA9ihmDL9bvHe-7" style="edgeStyle=orthogonalEdgeStyle;rounded=0;orthogonalLoop=1;jettySize=auto;html=1;endSize=16;endArrow=block;endFill=0;dashed=1;" parent="1" source="GJZl_H41ChBDgXwOMqB0-6" target="GJZl_H41ChBDgXwOMqB0-1" edge="1"><mxGeometry relative="1" as="geometry"/></mxCell><mxCell id="GJZl_H41ChBDgXwOMqB0-6" value="ProyectoServiceImpl" style="swimlane;fontStyle=1;align=center;verticalAlign=top;childLayout=stackLayout;horizontal=1;startSize=26;horizontalStack=0;resizeParent=1;resizeParentMax=0;resizeLast=0;collapsible=1;marginBottom=0;whiteSpace=wrap;html=1;fillColor=#008a00;strokeColor=#005700;fillStyle=solid;sketch=1;curveFitting=1;jiggle=2;fontColor=#ffffff;" parent="1" vertex="1"><mxGeometry x="2110" y="1680" width="270" height="112" as="geometry"/></mxCell><mxCell id="GJZl_H41ChBDgXwOMqB0-7" value="" style="line;strokeWidth=1;fillColor=none;align=left;verticalAlign=middle;spacingTop=-1;spacingLeft=3;spacingRight=3;rotatable=0;labelPosition=right;points=[];portConstraint=eastwest;strokeColor=inherit;" parent="GJZl_H41ChBDgXwOMqB0-6" vertex="1"><mxGeometry y="26" width="270" height="8" as="geometry"/></mxCell><mxCell id="GJZl_H41ChBDgXwOMqB0-8" value="+ verTodos(): List&amp;lt;Proyecto&amp;gt;" style="text;strokeColor=none;fillColor=none;align=left;verticalAlign=top;spacingLeft=4;spacingRight=4;overflow=hidden;rotatable=0;points=[[0,0.5],[1,0.5]];portConstraint=eastwest;whiteSpace=wrap;html=1;" parent="GJZl_H41ChBDgXwOMqB0-6" vertex="1"><mxGeometry y="34" width="270" height="26" as="geometry"/></mxCell><mxCell id="GJZl_H41ChBDgXwOMqB0-9" value="+ guardar(Proyecto proyecto) void" style="text;strokeColor=none;fillColor=none;align=left;verticalAlign=top;spacingLeft=4;spacingRight=4;overflow=hidden;rotatable=0;points=[[0,0.5],[1,0.5]];portConstraint=eastwest;whiteSpace=wrap;html=1;" parent="GJZl_H41ChBDgXwOMqB0-6" vertex="1"><mxGeometry y="60" width="270" height="26" as="geometry"/></mxCell><mxCell id="GJZl_H41ChBDgXwOMqB0-10" value="+ eliminar(Long id): void" style="text;strokeColor=none;fillColor=none;align=left;verticalAlign=top;spacingLeft=4;spacingRight=4;overflow=hidden;rotatable=0;points=[[0,0.5],[1,0.5]];portConstraint=eastwest;whiteSpace=wrap;html=1;" parent="GJZl_H41ChBDgXwOMqB0-6" vertex="1"><mxGeometry y="86" width="270" height="26" as="geometry"/></mxCell><mxCell id="GJZl_H41ChBDgXwOMqB0-14" style="edgeStyle=orthogonalEdgeStyle;rounded=0;orthogonalLoop=1;jettySize=auto;html=1;endArrow=diamondThin;endFill=0;endSize=16;" parent="1" source="GJZl_H41ChBDgXwOMqB0-12" target="GJZl_H41ChBDgXwOMqB0-6" edge="1"><mxGeometry relative="1" as="geometry"/></mxCell><mxCell id="GJZl_H41ChBDgXwOMqB0-12" value="&lt;i style=&quot;font-weight: normal;&quot;&gt;&amp;lt;&amp;lt;Interface&amp;gt;&amp;gt;&lt;/i&gt;&lt;br&gt;ProyectoRepository" style="swimlane;fontStyle=1;align=center;verticalAlign=top;childLayout=stackLayout;horizontal=1;startSize=40;horizontalStack=0;resizeParent=1;resizeParentMax=0;resizeLast=0;collapsible=1;marginBottom=0;whiteSpace=wrap;html=1;fillColor=#d80073;strokeColor=#A50040;sketch=1;curveFitting=1;jiggle=2;fillStyle=solid;fontColor=#ffffff;" parent="1" vertex="1"><mxGeometry x="2130" y="1860" width="230" height="48" as="geometry"/></mxCell><mxCell id="GJZl_H41ChBDgXwOMqB0-13" value="" style="line;strokeWidth=1;fillColor=none;align=left;verticalAlign=middle;spacingTop=-1;spacingLeft=3;spacingRight=3;rotatable=0;labelPosition=right;points=[];portConstraint=eastwest;strokeColor=inherit;" parent="GJZl_H41ChBDgXwOMqB0-12" vertex="1"><mxGeometry y="40" width="230" height="8" as="geometry"/></mxCell><mxCell id="GJZl_H41ChBDgXwOMqB0-15" value="ProyectoRestController" style="swimlane;fontStyle=1;align=center;verticalAlign=top;childLayout=stackLayout;horizontal=1;startSize=26;horizontalStack=0;resizeParent=1;resizeParentMax=0;resizeLast=0;collapsible=1;marginBottom=0;whiteSpace=wrap;html=1;fillColor=#fa6800;strokeColor=#C73500;fillStyle=solid;sketch=1;curveFitting=1;jiggle=2;fontColor=#000000;" parent="1" vertex="1"><mxGeometry x="2100" y="1299" width="290" height="138" as="geometry"/></mxCell><mxCell id="GJZl_H41ChBDgXwOMqB0-16" value="- ProyectoService: proyectoService" style="text;strokeColor=none;fillColor=none;align=left;verticalAlign=top;spacingLeft=4;spacingRight=4;overflow=hidden;rotatable=0;points=[[0,0.5],[1,0.5]];portConstraint=eastwest;whiteSpace=wrap;html=1;" parent="GJZl_H41ChBDgXwOMqB0-15" vertex="1"><mxGeometry y="26" width="290" height="26" as="geometry"/></mxCell><mxCell id="GJZl_H41ChBDgXwOMqB0-17" value="" style="line;strokeWidth=1;fillColor=none;align=left;verticalAlign=middle;spacingTop=-1;spacingLeft=3;spacingRight=3;rotatable=0;labelPosition=right;points=[];portConstraint=eastwest;strokeColor=inherit;" parent="GJZl_H41ChBDgXwOMqB0-15" vertex="1"><mxGeometry y="52" width="290" height="8" as="geometry"/></mxCell><mxCell id="GJZl_H41ChBDgXwOMqB0-18" value="+ crear(Proyecto proyecto): void" style="text;strokeColor=none;fillColor=none;align=left;verticalAlign=top;spacingLeft=4;spacingRight=4;overflow=hidden;rotatable=0;points=[[0,0.5],[1,0.5]];portConstraint=eastwest;whiteSpace=wrap;html=1;" parent="GJZl_H41ChBDgXwOMqB0-15" vertex="1"><mxGeometry y="60" width="290" height="26" as="geometry"/></mxCell><mxCell id="GJZl_H41ChBDgXwOMqB0-19" value="+ actualizar(Proyecto proyecto): void" style="text;strokeColor=none;fillColor=none;align=left;verticalAlign=top;spacingLeft=4;spacingRight=4;overflow=hidden;rotatable=0;points=[[0,0.5],[1,0.5]];portConstraint=eastwest;whiteSpace=wrap;html=1;" parent="GJZl_H41ChBDgXwOMqB0-15" vertex="1"><mxGeometry y="86" width="290" height="26" as="geometry"/></mxCell><mxCell id="GJZl_H41ChBDgXwOMqB0-20" value="+ eliminar(Long id): void" style="text;strokeColor=none;fillColor=none;align=left;verticalAlign=top;spacingLeft=4;spacingRight=4;overflow=hidden;rotatable=0;points=[[0,0.5],[1,0.5]];portConstraint=eastwest;whiteSpace=wrap;html=1;" parent="GJZl_H41ChBDgXwOMqB0-15" vertex="1"><mxGeometry y="112" width="290" height="26" as="geometry"/></mxCell><mxCell id="Zyv9Q41S-tUEJOIHRjED-1" value="ExpLaboralRestController" style="swimlane;fontStyle=1;align=center;verticalAlign=top;childLayout=stackLayout;horizontal=1;startSize=26;horizontalStack=0;resizeParent=1;resizeParentMax=0;resizeLast=0;collapsible=1;marginBottom=0;whiteSpace=wrap;html=1;fillColor=#fa6800;strokeColor=#C73500;fillStyle=solid;sketch=1;curveFitting=1;jiggle=2;fontColor=#000000;" parent="1" vertex="1"><mxGeometry x="2460" y="1299" width="320" height="138" as="geometry"/></mxCell><mxCell id="Zyv9Q41S-tUEJOIHRjED-2" value="- ExpLaboralService: expLaboralService" style="text;strokeColor=none;fillColor=none;align=left;verticalAlign=top;spacingLeft=4;spacingRight=4;overflow=hidden;rotatable=0;points=[[0,0.5],[1,0.5]];portConstraint=eastwest;whiteSpace=wrap;html=1;" parent="Zyv9Q41S-tUEJOIHRjED-1" vertex="1"><mxGeometry y="26" width="320" height="26" as="geometry"/></mxCell><mxCell id="Zyv9Q41S-tUEJOIHRjED-3" value="" style="line;strokeWidth=1;fillColor=none;align=left;verticalAlign=middle;spacingTop=-1;spacingLeft=3;spacingRight=3;rotatable=0;labelPosition=right;points=[];portConstraint=eastwest;strokeColor=inherit;" parent="Zyv9Q41S-tUEJOIHRjED-1" vertex="1"><mxGeometry y="52" width="320" height="8" as="geometry"/></mxCell><mxCell id="Zyv9Q41S-tUEJOIHRjED-4" value="+ crear(ExperienciaLaboral experienciaLaboral): void" style="text;strokeColor=none;fillColor=none;align=left;verticalAlign=top;spacingLeft=4;spacingRight=4;overflow=hidden;rotatable=0;points=[[0,0.5],[1,0.5]];portConstraint=eastwest;whiteSpace=wrap;html=1;" parent="Zyv9Q41S-tUEJOIHRjED-1" vertex="1"><mxGeometry y="60" width="320" height="26" as="geometry"/></mxCell><mxCell id="Zyv9Q41S-tUEJOIHRjED-5" value="+ actualizar(ExperienciaLaboral experienciaLaboral): void" style="text;strokeColor=none;fillColor=none;align=left;verticalAlign=top;spacingLeft=4;spacingRight=4;overflow=hidden;rotatable=0;points=[[0,0.5],[1,0.5]];portConstraint=eastwest;whiteSpace=wrap;html=1;" parent="Zyv9Q41S-tUEJOIHRjED-1" vertex="1"><mxGeometry y="86" width="320" height="26" as="geometry"/></mxCell><mxCell id="Zyv9Q41S-tUEJOIHRjED-6" value="+ eliminar(Long id): void" style="text;strokeColor=none;fillColor=none;align=left;verticalAlign=top;spacingLeft=4;spacingRight=4;overflow=hidden;rotatable=0;points=[[0,0.5],[1,0.5]];portConstraint=eastwest;whiteSpace=wrap;html=1;" parent="Zyv9Q41S-tUEJOIHRjED-1" vertex="1"><mxGeometry y="112" width="320" height="26" as="geometry"/></mxCell><mxCell id="Zyv9Q41S-tUEJOIHRjED-12" style="edgeStyle=orthogonalEdgeStyle;rounded=0;orthogonalLoop=1;jettySize=auto;html=1;endSize=16;endArrow=diamondThin;endFill=0;" parent="1" source="Zyv9Q41S-tUEJOIHRjED-7" target="Zyv9Q41S-tUEJOIHRjED-1" edge="1"><mxGeometry relative="1" as="geometry"/></mxCell><mxCell id="Zyv9Q41S-tUEJOIHRjED-13" style="edgeStyle=orthogonalEdgeStyle;rounded=0;orthogonalLoop=1;jettySize=auto;html=1;endSize=16;endArrow=diamondThin;endFill=0;" parent="1" source="Zyv9Q41S-tUEJOIHRjED-7" target="K4xMcO6IJz8VH5AZFiYE-14" edge="1"><mxGeometry relative="1" as="geometry"><Array as="points"><mxPoint x="2420" y="1563"/><mxPoint x="2420" y="1200"/></Array></mxGeometry></mxCell><mxCell id="Zyv9Q41S-tUEJOIHRjED-7" value="&lt;i style=&quot;font-weight: normal;&quot;&gt;&amp;lt;&amp;lt;Interface&amp;gt;&amp;gt;&lt;/i&gt;&lt;br&gt;ExpLaboralService" style="swimlane;fontStyle=1;align=center;verticalAlign=top;childLayout=stackLayout;horizontal=1;startSize=40;horizontalStack=0;resizeParent=1;resizeParentMax=0;resizeLast=0;collapsible=1;marginBottom=0;whiteSpace=wrap;html=1;fillColor=#1ba1e2;strokeColor=#006EAF;sketch=1;curveFitting=1;jiggle=2;fillStyle=solid;fontColor=#ffffff;" parent="1" vertex="1"><mxGeometry x="2460" y="1500" width="320" height="126" as="geometry"/></mxCell><mxCell id="Zyv9Q41S-tUEJOIHRjED-8" value="" style="line;strokeWidth=1;fillColor=none;align=left;verticalAlign=middle;spacingTop=-1;spacingLeft=3;spacingRight=3;rotatable=0;labelPosition=right;points=[];portConstraint=eastwest;strokeColor=inherit;" parent="Zyv9Q41S-tUEJOIHRjED-7" vertex="1"><mxGeometry y="40" width="320" height="8" as="geometry"/></mxCell><mxCell id="Zyv9Q41S-tUEJOIHRjED-9" value="+ verTodas(): List&amp;lt;ExperienciaLaboral&amp;gt;" style="text;strokeColor=none;fillColor=none;align=left;verticalAlign=top;spacingLeft=4;spacingRight=4;overflow=hidden;rotatable=0;points=[[0,0.5],[1,0.5]];portConstraint=eastwest;whiteSpace=wrap;html=1;" parent="Zyv9Q41S-tUEJOIHRjED-7" vertex="1"><mxGeometry y="48" width="320" height="26" as="geometry"/></mxCell><mxCell id="Zyv9Q41S-tUEJOIHRjED-10" value="+ guardar(ExperienciaLaboral experienciaLaboral): void" style="text;strokeColor=none;fillColor=none;align=left;verticalAlign=top;spacingLeft=4;spacingRight=4;overflow=hidden;rotatable=0;points=[[0,0.5],[1,0.5]];portConstraint=eastwest;whiteSpace=wrap;html=1;" parent="Zyv9Q41S-tUEJOIHRjED-7" vertex="1"><mxGeometry y="74" width="320" height="26" as="geometry"/></mxCell><mxCell id="Zyv9Q41S-tUEJOIHRjED-11" value="+ eliminar(Long id): void" style="text;strokeColor=none;fillColor=none;align=left;verticalAlign=top;spacingLeft=4;spacingRight=4;overflow=hidden;rotatable=0;points=[[0,0.5],[1,0.5]];portConstraint=eastwest;whiteSpace=wrap;html=1;" parent="Zyv9Q41S-tUEJOIHRjED-7" vertex="1"><mxGeometry y="100" width="320" height="26" as="geometry"/></mxCell><mxCell id="Zyv9Q41S-tUEJOIHRjED-19" style="edgeStyle=orthogonalEdgeStyle;rounded=0;orthogonalLoop=1;jettySize=auto;html=1;endSize=16;endArrow=block;endFill=0;dashed=1;" parent="1" source="Zyv9Q41S-tUEJOIHRjED-14" target="Zyv9Q41S-tUEJOIHRjED-7" edge="1"><mxGeometry relative="1" as="geometry"/></mxCell><mxCell id="Zyv9Q41S-tUEJOIHRjED-14" value="ExpLaboralServiceImpl" style="swimlane;fontStyle=1;align=center;verticalAlign=top;childLayout=stackLayout;horizontal=1;startSize=26;horizontalStack=0;resizeParent=1;resizeParentMax=0;resizeLast=0;collapsible=1;marginBottom=0;whiteSpace=wrap;html=1;fillColor=#008a00;strokeColor=#005700;fillStyle=solid;sketch=1;curveFitting=1;jiggle=2;fontColor=#ffffff;" parent="1" vertex="1"><mxGeometry x="2460" y="1680" width="320" height="112" as="geometry"/></mxCell><mxCell id="Zyv9Q41S-tUEJOIHRjED-15" value="" style="line;strokeWidth=1;fillColor=none;align=left;verticalAlign=middle;spacingTop=-1;spacingLeft=3;spacingRight=3;rotatable=0;labelPosition=right;points=[];portConstraint=eastwest;strokeColor=inherit;" parent="Zyv9Q41S-tUEJOIHRjED-14" vertex="1"><mxGeometry y="26" width="320" height="8" as="geometry"/></mxCell><mxCell id="Zyv9Q41S-tUEJOIHRjED-16" value="+ verTodas(): List&amp;lt;ExperienciaLaboral&amp;gt;" style="text;strokeColor=none;fillColor=none;align=left;verticalAlign=top;spacingLeft=4;spacingRight=4;overflow=hidden;rotatable=0;points=[[0,0.5],[1,0.5]];portConstraint=eastwest;whiteSpace=wrap;html=1;" parent="Zyv9Q41S-tUEJOIHRjED-14" vertex="1"><mxGeometry y="34" width="320" height="26" as="geometry"/></mxCell><mxCell id="Zyv9Q41S-tUEJOIHRjED-17" value="+ guardar(ExperienciaLaboral experienciaLaboral): void" style="text;strokeColor=none;fillColor=none;align=left;verticalAlign=top;spacingLeft=4;spacingRight=4;overflow=hidden;rotatable=0;points=[[0,0.5],[1,0.5]];portConstraint=eastwest;whiteSpace=wrap;html=1;" parent="Zyv9Q41S-tUEJOIHRjED-14" vertex="1"><mxGeometry y="60" width="320" height="26" as="geometry"/></mxCell><mxCell id="Zyv9Q41S-tUEJOIHRjED-18" value="+ eliminar(Long id): void" style="text;strokeColor=none;fillColor=none;align=left;verticalAlign=top;spacingLeft=4;spacingRight=4;overflow=hidden;rotatable=0;points=[[0,0.5],[1,0.5]];portConstraint=eastwest;whiteSpace=wrap;html=1;" parent="Zyv9Q41S-tUEJOIHRjED-14" vertex="1"><mxGeometry y="86" width="320" height="26" as="geometry"/></mxCell><mxCell id="Zyv9Q41S-tUEJOIHRjED-22" style="edgeStyle=orthogonalEdgeStyle;rounded=0;orthogonalLoop=1;jettySize=auto;html=1;endSize=16;endArrow=diamondThin;endFill=0;" parent="1" source="Zyv9Q41S-tUEJOIHRjED-20" target="Zyv9Q41S-tUEJOIHRjED-14" edge="1"><mxGeometry relative="1" as="geometry"/></mxCell><mxCell id="Zyv9Q41S-tUEJOIHRjED-20" value="&lt;i style=&quot;font-weight: normal;&quot;&gt;&amp;lt;&amp;lt;Interface&amp;gt;&amp;gt;&lt;/i&gt;&lt;br&gt;ExpLaboralRepository" style="swimlane;fontStyle=1;align=center;verticalAlign=top;childLayout=stackLayout;horizontal=1;startSize=40;horizontalStack=0;resizeParent=1;resizeParentMax=0;resizeLast=0;collapsible=1;marginBottom=0;whiteSpace=wrap;html=1;fillColor=#d80073;strokeColor=#A50040;sketch=1;curveFitting=1;jiggle=2;fillStyle=solid;fontColor=#ffffff;" parent="1" vertex="1"><mxGeometry x="2505" y="1860" width="230" height="48" as="geometry"/></mxCell><mxCell id="Zyv9Q41S-tUEJOIHRjED-21" value="" style="line;strokeWidth=1;fillColor=none;align=left;verticalAlign=middle;spacingTop=-1;spacingLeft=3;spacingRight=3;rotatable=0;labelPosition=right;points=[];portConstraint=eastwest;strokeColor=inherit;" parent="Zyv9Q41S-tUEJOIHRjED-20" vertex="1"><mxGeometry y="40" width="230" height="8" as="geometry"/></mxCell><mxCell id="Zyv9Q41S-tUEJOIHRjED-23" value="EducacionRestController" style="swimlane;fontStyle=1;align=center;verticalAlign=top;childLayout=stackLayout;horizontal=1;startSize=26;horizontalStack=0;resizeParent=1;resizeParentMax=0;resizeLast=0;collapsible=1;marginBottom=0;whiteSpace=wrap;html=1;fillColor=#fa6800;strokeColor=#C73500;fillStyle=solid;sketch=1;curveFitting=1;jiggle=2;fontColor=#000000;" parent="1" vertex="1"><mxGeometry x="2870" y="1299" width="250" height="138" as="geometry"/></mxCell><mxCell id="Zyv9Q41S-tUEJOIHRjED-24" value="- EducacionService: educacionService" style="text;strokeColor=none;fillColor=none;align=left;verticalAlign=top;spacingLeft=4;spacingRight=4;overflow=hidden;rotatable=0;points=[[0,0.5],[1,0.5]];portConstraint=eastwest;whiteSpace=wrap;html=1;" parent="Zyv9Q41S-tUEJOIHRjED-23" vertex="1"><mxGeometry y="26" width="250" height="26" as="geometry"/></mxCell><mxCell id="Zyv9Q41S-tUEJOIHRjED-25" value="" style="line;strokeWidth=1;fillColor=none;align=left;verticalAlign=middle;spacingTop=-1;spacingLeft=3;spacingRight=3;rotatable=0;labelPosition=right;points=[];portConstraint=eastwest;strokeColor=inherit;" parent="Zyv9Q41S-tUEJOIHRjED-23" vertex="1"><mxGeometry y="52" width="250" height="8" as="geometry"/></mxCell><mxCell id="Zyv9Q41S-tUEJOIHRjED-26" value="+ crear(Educacion educacion): void" style="text;strokeColor=none;fillColor=none;align=left;verticalAlign=top;spacingLeft=4;spacingRight=4;overflow=hidden;rotatable=0;points=[[0,0.5],[1,0.5]];portConstraint=eastwest;whiteSpace=wrap;html=1;" parent="Zyv9Q41S-tUEJOIHRjED-23" vertex="1"><mxGeometry y="60" width="250" height="26" as="geometry"/></mxCell><mxCell id="Zyv9Q41S-tUEJOIHRjED-27" value="+ actualizar(Educacion educacion): void" style="text;strokeColor=none;fillColor=none;align=left;verticalAlign=top;spacingLeft=4;spacingRight=4;overflow=hidden;rotatable=0;points=[[0,0.5],[1,0.5]];portConstraint=eastwest;whiteSpace=wrap;html=1;" parent="Zyv9Q41S-tUEJOIHRjED-23" vertex="1"><mxGeometry y="86" width="250" height="26" as="geometry"/></mxCell><mxCell id="Zyv9Q41S-tUEJOIHRjED-28" value="+ eliminar(Long id): void" style="text;strokeColor=none;fillColor=none;align=left;verticalAlign=top;spacingLeft=4;spacingRight=4;overflow=hidden;rotatable=0;points=[[0,0.5],[1,0.5]];portConstraint=eastwest;whiteSpace=wrap;html=1;" parent="Zyv9Q41S-tUEJOIHRjED-23" vertex="1"><mxGeometry y="112" width="250" height="26" as="geometry"/></mxCell><mxCell id="Zyv9Q41S-tUEJOIHRjED-29" style="edgeStyle=orthogonalEdgeStyle;rounded=0;orthogonalLoop=1;jettySize=auto;html=1;endSize=16;endArrow=diamondThin;endFill=0;" parent="1" source="Zyv9Q41S-tUEJOIHRjED-30" target="Zyv9Q41S-tUEJOIHRjED-23" edge="1"><mxGeometry relative="1" as="geometry"/></mxCell><mxCell id="Zyv9Q41S-tUEJOIHRjED-44" style="edgeStyle=orthogonalEdgeStyle;rounded=0;orthogonalLoop=1;jettySize=auto;html=1;endSize=16;endArrow=diamondThin;endFill=0;" parent="1" source="Zyv9Q41S-tUEJOIHRjED-30" target="K4xMcO6IJz8VH5AZFiYE-14" edge="1"><mxGeometry relative="1" as="geometry"><Array as="points"><mxPoint x="2830" y="1563"/><mxPoint x="2830" y="1180"/></Array></mxGeometry></mxCell><mxCell id="Zyv9Q41S-tUEJOIHRjED-30" value="&lt;i style=&quot;font-weight: normal;&quot;&gt;&amp;lt;&amp;lt;Interface&amp;gt;&amp;gt;&lt;/i&gt;&lt;br&gt;EducacionService" style="swimlane;fontStyle=1;align=center;verticalAlign=top;childLayout=stackLayout;horizontal=1;startSize=40;horizontalStack=0;resizeParent=1;resizeParentMax=0;resizeLast=0;collapsible=1;marginBottom=0;whiteSpace=wrap;html=1;fillColor=#dae8fc;strokeColor=#6c8ebf;sketch=1;curveFitting=1;jiggle=2;fillStyle=solid;" parent="1" vertex="1"><mxGeometry x="2870" y="1500" width="250" height="126" as="geometry"/></mxCell><mxCell id="Zyv9Q41S-tUEJOIHRjED-31" value="" style="line;strokeWidth=1;fillColor=none;align=left;verticalAlign=middle;spacingTop=-1;spacingLeft=3;spacingRight=3;rotatable=0;labelPosition=right;points=[];portConstraint=eastwest;strokeColor=inherit;" parent="Zyv9Q41S-tUEJOIHRjED-30" vertex="1"><mxGeometry y="40" width="250" height="8" as="geometry"/></mxCell><mxCell id="Zyv9Q41S-tUEJOIHRjED-32" value="+ verTodas(): List&amp;lt;Educacion&amp;gt;" style="text;strokeColor=none;fillColor=none;align=left;verticalAlign=top;spacingLeft=4;spacingRight=4;overflow=hidden;rotatable=0;points=[[0,0.5],[1,0.5]];portConstraint=eastwest;whiteSpace=wrap;html=1;" parent="Zyv9Q41S-tUEJOIHRjED-30" vertex="1"><mxGeometry y="48" width="250" height="26" as="geometry"/></mxCell><mxCell id="Zyv9Q41S-tUEJOIHRjED-33" value="+ guardar(Educacion educacion): void" style="text;strokeColor=none;fillColor=none;align=left;verticalAlign=top;spacingLeft=4;spacingRight=4;overflow=hidden;rotatable=0;points=[[0,0.5],[1,0.5]];portConstraint=eastwest;whiteSpace=wrap;html=1;" parent="Zyv9Q41S-tUEJOIHRjED-30" vertex="1"><mxGeometry y="74" width="250" height="26" as="geometry"/></mxCell><mxCell id="Zyv9Q41S-tUEJOIHRjED-34" value="+ eliminar(Long id): void" style="text;strokeColor=none;fillColor=none;align=left;verticalAlign=top;spacingLeft=4;spacingRight=4;overflow=hidden;rotatable=0;points=[[0,0.5],[1,0.5]];portConstraint=eastwest;whiteSpace=wrap;html=1;" parent="Zyv9Q41S-tUEJOIHRjED-30" vertex="1"><mxGeometry y="100" width="250" height="26" as="geometry"/></mxCell><mxCell id="Zyv9Q41S-tUEJOIHRjED-35" style="edgeStyle=orthogonalEdgeStyle;rounded=0;orthogonalLoop=1;jettySize=auto;html=1;endSize=16;endArrow=block;endFill=0;dashed=1;" parent="1" source="Zyv9Q41S-tUEJOIHRjED-36" target="Zyv9Q41S-tUEJOIHRjED-30" edge="1"><mxGeometry relative="1" as="geometry"/></mxCell><mxCell id="Zyv9Q41S-tUEJOIHRjED-36" value="EducacionServiceImpl" style="swimlane;fontStyle=1;align=center;verticalAlign=top;childLayout=stackLayout;horizontal=1;startSize=26;horizontalStack=0;resizeParent=1;resizeParentMax=0;resizeLast=0;collapsible=1;marginBottom=0;whiteSpace=wrap;html=1;fillColor=#d5e8d4;strokeColor=#82b366;fillStyle=solid;sketch=1;curveFitting=1;jiggle=2;" parent="1" vertex="1"><mxGeometry x="2870" y="1680" width="250" height="112" as="geometry"/></mxCell><mxCell id="Zyv9Q41S-tUEJOIHRjED-37" value="" style="line;strokeWidth=1;fillColor=none;align=left;verticalAlign=middle;spacingTop=-1;spacingLeft=3;spacingRight=3;rotatable=0;labelPosition=right;points=[];portConstraint=eastwest;strokeColor=inherit;" parent="Zyv9Q41S-tUEJOIHRjED-36" vertex="1"><mxGeometry y="26" width="250" height="8" as="geometry"/></mxCell><mxCell id="Zyv9Q41S-tUEJOIHRjED-38" value="+ verTodas(): List&amp;lt;Educacion&amp;gt;" style="text;strokeColor=none;fillColor=none;align=left;verticalAlign=top;spacingLeft=4;spacingRight=4;overflow=hidden;rotatable=0;points=[[0,0.5],[1,0.5]];portConstraint=eastwest;whiteSpace=wrap;html=1;" parent="Zyv9Q41S-tUEJOIHRjED-36" vertex="1"><mxGeometry y="34" width="250" height="26" as="geometry"/></mxCell><mxCell id="Zyv9Q41S-tUEJOIHRjED-39" value="+ guardar(Educacion educacion): void" style="text;strokeColor=none;fillColor=none;align=left;verticalAlign=top;spacingLeft=4;spacingRight=4;overflow=hidden;rotatable=0;points=[[0,0.5],[1,0.5]];portConstraint=eastwest;whiteSpace=wrap;html=1;" parent="Zyv9Q41S-tUEJOIHRjED-36" vertex="1"><mxGeometry y="60" width="250" height="26" as="geometry"/></mxCell><mxCell id="Zyv9Q41S-tUEJOIHRjED-40" value="+ eliminar(Long id): void" style="text;strokeColor=none;fillColor=none;align=left;verticalAlign=top;spacingLeft=4;spacingRight=4;overflow=hidden;rotatable=0;points=[[0,0.5],[1,0.5]];portConstraint=eastwest;whiteSpace=wrap;html=1;" parent="Zyv9Q41S-tUEJOIHRjED-36" vertex="1"><mxGeometry y="86" width="250" height="26" as="geometry"/></mxCell><mxCell id="Zyv9Q41S-tUEJOIHRjED-41" style="edgeStyle=orthogonalEdgeStyle;rounded=0;orthogonalLoop=1;jettySize=auto;html=1;endSize=16;endArrow=diamondThin;endFill=0;" parent="1" source="Zyv9Q41S-tUEJOIHRjED-42" target="Zyv9Q41S-tUEJOIHRjED-36" edge="1"><mxGeometry relative="1" as="geometry"/></mxCell><mxCell id="Zyv9Q41S-tUEJOIHRjED-42" value="&lt;i style=&quot;font-weight: normal;&quot;&gt;&amp;lt;&amp;lt;Interface&amp;gt;&amp;gt;&lt;/i&gt;&lt;br&gt;EducacionRepository" style="swimlane;fontStyle=1;align=center;verticalAlign=top;childLayout=stackLayout;horizontal=1;startSize=40;horizontalStack=0;resizeParent=1;resizeParentMax=0;resizeLast=0;collapsible=1;marginBottom=0;whiteSpace=wrap;html=1;fillColor=#f8cecc;strokeColor=#b85450;sketch=1;curveFitting=1;jiggle=2;fillStyle=solid;" parent="1" vertex="1"><mxGeometry x="2880" y="1860" width="230" height="48" as="geometry"/></mxCell><mxCell id="Zyv9Q41S-tUEJOIHRjED-43" value="" style="line;strokeWidth=1;fillColor=none;align=left;verticalAlign=middle;spacingTop=-1;spacingLeft=3;spacingRight=3;rotatable=0;labelPosition=right;points=[];portConstraint=eastwest;strokeColor=inherit;" parent="Zyv9Q41S-tUEJOIHRjED-42" vertex="1"><mxGeometry y="40" width="230" height="8" as="geometry"/></mxCell><mxCell id="DQ0uSYyMi5S63_V3K_ZA-2" value="LoginController" style="swimlane;fontStyle=1;align=center;verticalAlign=top;childLayout=stackLayout;horizontal=1;startSize=26;horizontalStack=0;resizeParent=1;resizeParentMax=0;resizeLast=0;collapsible=1;marginBottom=0;whiteSpace=wrap;html=1;fillColor=#fa6800;strokeColor=#C73500;fillStyle=solid;sketch=1;curveFitting=1;jiggle=2;fontColor=#000000;" parent="1" vertex="1"><mxGeometry x="1135" y="1120" width="360" height="138" as="geometry"/></mxCell><mxCell id="DQ0uSYyMi5S63_V3K_ZA-3" value="- PropietarioService: propietarioService" style="text;strokeColor=none;fillColor=none;align=left;verticalAlign=top;spacingLeft=4;spacingRight=4;overflow=hidden;rotatable=0;points=[[0,0.5],[1,0.5]];portConstraint=eastwest;whiteSpace=wrap;html=1;" parent="DQ0uSYyMi5S63_V3K_ZA-2" vertex="1"><mxGeometry y="26" width="360" height="26" as="geometry"/></mxCell><mxCell id="DQ0uSYyMi5S63_V3K_ZA-4" value="" style="line;strokeWidth=1;fillColor=none;align=left;verticalAlign=middle;spacingTop=-1;spacingLeft=3;spacingRight=3;rotatable=0;labelPosition=right;points=[];portConstraint=eastwest;strokeColor=inherit;" parent="DQ0uSYyMi5S63_V3K_ZA-2" vertex="1"><mxGeometry y="52" width="360" height="8" as="geometry"/></mxCell><mxCell id="DQ0uSYyMi5S63_V3K_ZA-5" value="+ ingresar(String usuario, String password, Model model): String" style="text;strokeColor=none;fillColor=none;align=left;verticalAlign=top;spacingLeft=4;spacingRight=4;overflow=hidden;rotatable=0;points=[[0,0.5],[1,0.5]];portConstraint=eastwest;whiteSpace=wrap;html=1;" parent="DQ0uSYyMi5S63_V3K_ZA-2" vertex="1"><mxGeometry y="60" width="360" height="26" as="geometry"/></mxCell><mxCell id="wjonEUvTjgN-GEcJR5Zv-1" value="+ verLogin(): String" style="text;strokeColor=none;fillColor=none;align=left;verticalAlign=top;spacingLeft=4;spacingRight=4;overflow=hidden;rotatable=0;points=[[0,0.5],[1,0.5]];portConstraint=eastwest;whiteSpace=wrap;html=1;" parent="DQ0uSYyMi5S63_V3K_ZA-2" vertex="1"><mxGeometry y="86" width="360" height="26" as="geometry"/></mxCell><mxCell id="1i6Zp_U9V8M1wstWsC5t-1" value="+ verHomeEdicion(): String" style="text;strokeColor=none;fillColor=none;align=left;verticalAlign=top;spacingLeft=4;spacingRight=4;overflow=hidden;rotatable=0;points=[[0,0.5],[1,0.5]];portConstraint=eastwest;whiteSpace=wrap;html=1;" parent="DQ0uSYyMi5S63_V3K_ZA-2" vertex="1"><mxGeometry y="112" width="360" height="26" as="geometry"/></mxCell><mxCell id="DQ0uSYyMi5S63_V3K_ZA-6" style="edgeStyle=orthogonalEdgeStyle;rounded=0;orthogonalLoop=1;jettySize=auto;html=1;endArrow=diamondThin;endFill=0;endSize=16;sketch=1;shadow=0;" parent="1" source="K4xMcO6IJz8VH5AZFiYE-9" target="DQ0uSYyMi5S63_V3K_ZA-2" edge="1"><mxGeometry relative="1" as="geometry"><Array as="points"><mxPoint x="1100" y="1547"/><mxPoint x="1100" y="1190"/></Array></mxGeometry></mxCell></root></mxGraphModel></diagram></mxfile>